<svg width="49" height="31" viewBox="0 0 49 31" fill="none" xmlns="http://www.w3.org/2000/svg">
<path d="M20.3109 25.2203L22.4453 28.917C23.2041 30.2315 25.1013 30.2315 25.8602 28.917L27.9946 25.2203C28.7534 23.9058 27.8048 22.2628 26.2871 22.2628L22.0184 22.2628C20.5006 22.2628 19.552 23.9058 20.3109 25.2203Z" fill="#1D2D3D" stroke="white" stroke-width="1.31441"/>
<path d="M0 2.62883C0 1.17696 1.17697 0 2.62883 0H45.6759C47.1277 0 48.3047 1.17697 48.3047 2.62883V18.4018C48.3047 19.8537 47.1277 21.0306 45.6759 21.0306H2.62883C1.17697 21.0306 0 19.8537 0 18.4018V2.62883Z" fill="white"/>
<path d="M2.62883 0.492905H45.6759C46.8555 0.492905 47.8118 1.44919 47.8118 2.62883V18.4018C47.8118 19.5814 46.8555 20.5377 45.6759 20.5377H2.62883C1.44919 20.5377 0.492905 19.5814 0.492905 18.4018V2.62882C0.492905 1.44919 1.44919 0.492905 2.62883 0.492905Z" stroke="#810606" stroke-opacity="0.18" stroke-width="0.98581"/>
<rect x="0.821509" y="0.821509" width="19.3876" height="19.3876" rx="1.80732" fill="#E44040" stroke="#B41A1A" stroke-width="1.64302"/>
<path fill-rule="evenodd" clip-rule="evenodd" d="M4.99981 24.7672C7.08 24.7672 8.76684 23.0805 8.76684 21C8.76684 18.9195 7.08 17.2329 4.99981 17.2329C2.91926 17.2329 1.23242 18.9195 1.23242 21C1.23242 23.0805 2.91926 24.7672 4.99981 24.7672ZM5.28218 19.1165C5.28218 18.9604 5.15566 18.8339 4.99981 18.8339C4.8436 18.8339 4.71708 18.9604 4.71708 19.1165V21C4.71708 21.1216 4.79483 21.2296 4.91039 21.2681L6.04025 21.6448C6.18833 21.6941 6.34843 21.6141 6.39791 21.4661C6.44703 21.3181 6.36716 21.158 6.21908 21.1087L5.28218 20.7964V19.1165Z" fill="#EA0000"/>
<path d="M4.71736 21C4.71736 21.1216 4.79511 21.2296 4.91068 21.268L6.04089 21.6447C6.18897 21.6941 6.34871 21.6141 6.39819 21.4661C6.44767 21.318 6.36745 21.158 6.21937 21.1087L5.28247 20.7963V19.1164C5.28247 18.9604 5.15594 18.8339 5.00009 18.8339C4.84388 18.8339 4.71736 18.9604 4.71736 19.1164V21ZM10.0002 21C10.0002 23.7614 7.7613 26 5.00009 26C2.23852 26 0 23.7614 0 21C0 18.2386 2.23852 16 5.00009 16C7.7613 16 10.0002 18.2386 10.0002 21ZM8.76712 21C8.76712 23.0805 7.08063 24.7671 5.00009 24.7671C2.91954 24.7671 1.23271 23.0805 1.23271 21C1.23271 18.9195 2.91954 17.2329 5.00009 17.2329C7.08063 17.2329 8.76712 18.9195 8.76712 21Z" fill="white"/>
<path d="M4.71736 21C4.71736 21.1216 4.79511 21.2296 4.91068 21.268L6.04089 21.6447C6.18897 21.6941 6.34871 21.6141 6.39819 21.4661C6.44767 21.318 6.36745 21.158 6.21937 21.1087L5.28247 20.7963V19.1164C5.28247 18.9604 5.15594 18.8339 5.00009 18.8339C4.84388 18.8339 4.71736 18.9604 4.71736 19.1164V21ZM10.0002 21C10.0002 23.7614 7.7613 26 5.00009 26C2.23852 26 0 23.7614 0 21C0 18.2386 2.23852 16 5.00009 16C7.7613 16 10.0002 18.2386 10.0002 21ZM8.76712 21C8.76712 23.0805 7.08063 24.7671 5.00009 24.7671C2.91954 24.7671 1.23271 23.0805 1.23271 21C1.23271 18.9195 2.91954 17.2329 5.00009 17.2329C7.08063 17.2329 8.76712 18.9195 8.76712 21Z" stroke="white"/>
</svg>
