<svg width="49" height="31" viewBox="0 0 49 31" fill="none" xmlns="http://www.w3.org/2000/svg">
<path d="M20.3109 25.2203L22.4453 28.917C23.2041 30.2315 25.1013 30.2315 25.8602 28.917L27.9946 25.2203C28.7534 23.9058 27.8048 22.2628 26.2871 22.2628L22.0184 22.2628C20.5006 22.2628 19.552 23.9058 20.3109 25.2203Z" fill="#00E3E3" stroke="white" stroke-width="1.31441"/>
<path d="M0 2.62883C0 1.17696 1.17697 0 2.62883 0H45.6759C47.1277 0 48.3047 1.17697 48.3047 2.62883V18.4018C48.3047 19.8537 47.1277 21.0306 45.6759 21.0306H2.62883C1.17697 21.0306 0 19.8537 0 18.4018V2.62883Z" fill="white"/>
<path d="M2.62883 0.492905H45.6759C46.8555 0.492905 47.8118 1.44919 47.8118 2.62883V18.4018C47.8118 19.5814 46.8555 20.5377 45.6759 20.5377H2.62883C1.44919 20.5377 0.492905 19.5814 0.492905 18.4018V2.62882C0.492905 1.44919 1.44919 0.492905 2.62883 0.492905Z" stroke="#00D4D4" stroke-opacity="0.25" stroke-width="0.98581"/>
<rect x="0.821509" y="0.821509" width="19.3876" height="19.3876" rx="1.80732" fill="#E44040" stroke="#B41A1A" stroke-width="1.64302"/>
</svg>
