<svg width="49" height="32" viewBox="0 0 49 32" fill="none" xmlns="http://www.w3.org/2000/svg">
<path d="M27.9938 27.0276L25.8594 23.3308C25.1005 22.0163 23.2034 22.0163 22.4445 23.3308L20.3101 27.0275C19.5513 28.342 20.4998 29.985 22.0176 29.985H26.2863C27.804 29.985 28.7526 28.342 27.9938 27.0276Z" fill="#1D2D3D" stroke="white" stroke-width="1.31441"/>
<path d="M0 2.62883C0 1.17696 1.17697 0 2.62883 0H45.6759C47.1277 0 48.3047 1.17697 48.3047 2.62883V18.4018C48.3047 19.8537 47.1277 21.0306 45.6759 21.0306H2.62883C1.17697 21.0306 0 19.8537 0 18.4018V2.62883Z" fill="white"/>
<path d="M2.62883 0.492905H45.6759C46.8555 0.492905 47.8118 1.44919 47.8118 2.62883V18.4018C47.8118 19.5814 46.8555 20.5377 45.6759 20.5377H2.62883C1.44919 20.5377 0.492905 19.5814 0.492905 18.4018V2.62882C0.492905 1.44919 1.44919 0.492905 2.62883 0.492905Z" stroke="#00BA0B" stroke-opacity="0.4" stroke-width="0.98581"/>
<rect x="0.821509" y="0.821509" width="19.3876" height="19.3876" rx="1.80732" fill="#00BA0B" stroke="#027F09" stroke-width="1.64302"/>
<path d="M2 19.2364C2 18.5535 2.55358 18 3.23636 18H17.7636C18.4464 18 19 18.5535 19 19.2364V22.9455C19 23.6283 18.4464 24.1818 17.7636 24.1818H3.23636C2.55358 24.1818 2 23.6283 2 22.9455V19.2364Z" fill="white"/>
<path d="M6.91542 19.2363V22.8959H6.24716L4.65504 20.5926H4.62815V22.8959H3.85449V19.2363H4.53357L6.11302 21.5379H6.14516V19.2363H6.91542Z" fill="#1B2A38"/>
<path d="M7.67676 22.8959V19.2363H10.1427V19.8742H8.45041V20.7462H10.0156V21.3842H8.45041V22.258H10.1498V22.8959H7.67676Z" fill="#1B2A38"/>
<path d="M11.6059 19.2363L12.344 20.4836H12.3724L13.1139 19.2363H13.9877L12.871 21.0661L14.0128 22.8959H13.1229L12.3724 21.6468H12.344L11.5935 22.8959H10.707L11.8525 21.0661L10.7287 19.2363H11.6059Z" fill="#1B2A38"/>
<path d="M14.46 19.8742V19.2363H17.4656V19.8742H16.3451V22.8959H15.5804V19.8742H14.46Z" fill="#1B2A38"/>
</svg>
