<svg xmlns="http://www.w3.org/2000/svg" width="1081" height="288" fill="none"><ellipse cx="614.5" cy="259" fill="url(#a)" rx="466.5" ry="29"/><path fill="#285FF6" d="M.008 209.363v-52.159L99.497.727h47.329v69.545h-27.045l-53.608 85v1.932H212.99v52.159H.008Zm120.255 38.636v-54.574l1.449-22.698v-170h62.784v247.272h-64.233ZM607 209.363v-52.159L706.489.727h47.329v69.545h-27.045l-53.608 85v1.932h146.818v52.159H607Zm120.256 38.636v-54.574l1.449-22.698v-170h62.784v247.272h-64.233Z"/><g filter="url(#b)" opacity=".5"><path fill="url(#c)" d="M574.992 248.848c0 4.207-73.87 7.606-165 7.606-91.129 0-165-3.399-165-7.606 0-4.208 73.871-7.59 165-7.59 91.13 0 165 3.399 165 7.59Z"/></g><path fill="url(#d)" d="M460.251 9.502a137.56 137.56 0 0 0-187.113 114.346 137.567 137.567 0 0 0 17.163 81.476c2.789 4.95 3.795 12.49 6.089 17.688 4.554 10.378 8.25 12.738 16.879 19.8a23.434 23.434 0 0 0 15.395 5.692h162.723a32.146 32.146 0 0 0 14.239-3.745c4.208-2.36 7.211-6.105 10.247-8.745 6.418-5.594 9.339-13.58 12.342-20.856 3.3-8.085 6.6-18.893 9.9-27.341A137.545 137.545 0 0 0 460.251 9.502Z"/><path fill="url(#e)" d="M306.648 237.391c1.865 1.65 4.01 3.3 6.6 5.412a23.434 23.434 0 0 0 15.395 5.692h162.723a32.146 32.146 0 0 0 14.239-3.745 43.95 43.95 0 0 0 8.745-7.359H306.648Z" opacity=".5" style="mix-blend-mode:multiply"/><path fill="url(#f)" d="M306.648 237.391c1.865 1.65 4.01 3.3 6.6 5.412a23.434 23.434 0 0 0 15.395 5.692h162.723a32.146 32.146 0 0 0 14.239-3.745 43.95 43.95 0 0 0 8.745-7.359H306.648Z" opacity=".1" style="mix-blend-mode:screen"/><path fill="url(#g)" d="M399.416 3.086c.742 0 1.254-1.22 1.138-2.607V.281l-2.673.215a.82.82 0 0 0 0 .198c.099 1.37.792 2.442 1.535 2.392Z" style="mix-blend-mode:overlay"/><path fill="url(#h)" d="M378.512 6.382c.726-.165 1.039-1.402.726-2.739v-.198l-2.607.627a.82.82 0 0 0 0 .198c.363 1.337 1.155 2.376 1.881 2.112Z" style="mix-blend-mode:overlay"/><path fill="url(#i)" d="M358.382 12.934c.677-.297.808-1.551.28-2.838v-.182l-2.474 1.04c.002.06.002.12 0 .181.527 1.27 1.501 2.112 2.194 1.799Z" style="mix-blend-mode:overlay"/><path fill="url(#j)" d="M339.526 22.526c.627-.396.561-1.65-.165-2.838l-.099-.165-2.293 1.403.099.165c.726 1.188 1.831 1.815 2.458 1.435Z" style="mix-blend-mode:overlay"/><path fill="url(#k)" d="M322.389 34.975c.578-.478.297-1.732-.594-2.772l-.132-.148c-.693.56-1.369 1.155-2.046 1.732l.132.165c.891 1.04 2.079 1.502 2.64 1.023Z" style="mix-blend-mode:overlay"/><path fill="url(#l)" d="M307.428 49.936c.495-.56 0-1.749-1.023-2.656l-.148-.116-1.749 2.03.148.132c1.056.907 2.294 1.171 2.772.61Z" style="mix-blend-mode:overlay"/><path fill="url(#m)" d="M294.986 67.057c.396-.627-.247-1.65-1.418-2.442l-.182-.1c-.462.76-.941 1.519-1.386 2.278l.165.115c1.172.792 2.442.792 2.821.149Z" style="mix-blend-mode:overlay"/><path fill="url(#n)" d="M285.378 85.843c.28-.677-.512-1.65-1.799-2.195h-.181c-.346.825-.693 1.65-1.023 2.475h.182c1.27.61 2.54.479 2.821-.28Z" style="mix-blend-mode:overlay"/><path fill="url(#o)" d="M278.859 106.037c.165-.726-.776-1.567-2.129-1.881h-.181a75.247 75.247 0 0 0-.627 2.607h.181c1.353.33 2.574 0 2.756-.726Z" style="mix-blend-mode:overlay"/><path fill="url(#p)" d="M275.531 126.941c0-.743-1.007-1.419-2.393-1.535h-.198c0 .891-.148 1.782-.198 2.673h.198c1.37.116 2.541-.396 2.591-1.138Z" style="mix-blend-mode:overlay"/><path fill="url(#q)" d="M272.94 146.898h-.198c0 .891.132 1.782.198 2.673h.198c1.386-.115 2.459-.792 2.393-1.534-.066-.743-1.221-1.139-2.591-1.139Z" style="mix-blend-mode:overlay"/><path fill="url(#r)" d="M278.859 169.026c-.182-.726-1.403-1.056-2.756-.726h-.181c.198.875.412 1.733.627 2.607h.181c1.353-.313 2.294-1.171 2.129-1.881Z" style="mix-blend-mode:overlay"/><path fill="url(#s)" d="M285.385 189.16c-.281-.693-1.551-.826-2.822-.298h-.165c.33.825.677 1.65 1.023 2.475h.165c1.287-.511 2.079-1.534 1.799-2.177Z" style="mix-blend-mode:overlay"/><path fill="url(#t)" d="M294.492 208.99c-.231-.71-1.469-.941-2.789-.528l.446 1.221v.082c.148.413.28.825.412 1.238 1.353-.413 2.228-1.32 1.931-2.013Z" style="mix-blend-mode:overlay"/><path fill="url(#u)" d="M544.44 126.94c0 .742 1.221 1.254 2.591 1.155h.198c0-.891-.132-1.782-.198-2.673h-.215c-1.369.099-2.442.775-2.376 1.518Z" style="mix-blend-mode:overlay"/><path fill="url(#v)" d="M534.984 189.388c-.264.66.462 1.65 1.65 2.145.313-.858.61-1.65.924-2.508-1.172-.429-2.294-.281-2.574.363Z" style="mix-blend-mode:overlay"/><path fill="url(#w)" d="M543.878 168.347c-1.336-.33-2.557 0-2.739.726-.181.726.776 1.65 2.112 1.881h.198c.01-.088.01-.176 0-.264.198-.776.38-1.568.561-2.343h-.132Z" style="mix-blend-mode:overlay"/><path fill="url(#x)" d="M546.831 149.65h.214c0-.891.149-1.782.198-2.673h-.198c-1.369-.115-2.541.396-2.59 1.139-.05.742 1.006 1.419 2.376 1.534Z" style="mix-blend-mode:overlay"/><path fill="url(#y)" d="M541.135 106.037c.181.726 1.402 1.056 2.755.726h.182c-.198-.874-.413-1.732-.627-2.607h-.198c-1.254.314-2.277 1.172-2.112 1.881Z" style="mix-blend-mode:overlay"/><path fill="url(#z)" d="M534.595 85.85c.281.693 1.551.825 2.822.297h.181c-.33-.825-.676-1.65-1.023-2.475h-.181c-1.287.528-2.079 1.567-1.799 2.178Z" style="mix-blend-mode:overlay"/><path fill="url(#A)" d="M525 67.073c.379.627 1.65.561 2.821-.165l.182-.115-1.403-2.277-.181.099c-1.172.726-1.815 1.815-1.419 2.458Z" style="mix-blend-mode:overlay"/><path fill="url(#B)" d="M512.558 49.936c.479.561 1.65.297 2.772-.61l.149-.132-1.749-2.03-.149.132c-1.056.891-1.518 2.08-1.023 2.64Z" style="mix-blend-mode:overlay"/><path fill="url(#C)" d="M497.591 34.975c.561.479 1.749 0 2.64-1.023l.132-.165c-.677-.577-1.353-1.171-2.046-1.732l-.132.148c-.891 1.04-1.172 2.294-.594 2.772Z" style="mix-blend-mode:overlay"/><path fill="url(#D)" d="M480.468 22.526c.627.38 1.65-.247 2.458-1.435l.099-.165-2.293-1.403-.099.165c-.726 1.188-.792 2.442-.165 2.838Z" style="mix-blend-mode:overlay"/><path fill="url(#E)" d="M461.605 12.934c.693.28 1.65-.528 2.195-1.799v-.198l-2.475-1.023a.936.936 0 0 0 0 .198c-.528 1.27-.396 2.525.28 2.822Z" style="mix-blend-mode:overlay"/><path fill="url(#F)" d="M441.473 6.382c.726.182 1.65-.775 1.898-2.112a.82.82 0 0 0 0-.198l-2.607-.627v.198c-.33 1.353-.017 2.574.709 2.74Z" style="mix-blend-mode:overlay"/><path fill="url(#G)" d="M420.567 3.086c.743 0 1.436-1.023 1.535-2.392a.82.82 0 0 0 0-.198L419.429.28V.48c-.116 1.386.462 2.541 1.138 2.607Z" style="mix-blend-mode:overlay"/><path fill="url(#H)" d="M302.961 229.904c-.462-.544-1.65-.313-2.656.512.528.759 1.039 1.485 1.65 2.161 1.023-.924 1.485-2.112 1.006-2.673Z" style="mix-blend-mode:overlay"/><path fill="url(#I)" d="M319.589 243.923c-.66-.313-1.65.429-2.261 1.65a24.67 24.67 0 0 0 2.409 1.172c.594-1.238.528-2.492-.148-2.822Z" style="mix-blend-mode:overlay"/><path fill="url(#J)" d="M338.68 247.149a1.3 1.3 0 0 0-1.22.749c-.07.154-.11.32-.116.489v.099h2.689v-.099a1.305 1.305 0 0 0-1.353-1.238Z" style="mix-blend-mode:overlay"/><path fill="url(#K)" d="M357.548 247.15a1.275 1.275 0 0 0-.935.336 1.289 1.289 0 0 0-.418.902v.099h2.69v-.099a1.294 1.294 0 0 0-.84-1.159 1.296 1.296 0 0 0-.497-.079Z" style="mix-blend-mode:overlay"/><path fill="url(#L)" d="M376.408 247.149a1.304 1.304 0 0 0-1.353 1.238v.099h2.689v-.099a1.293 1.293 0 0 0-.411-.896 1.3 1.3 0 0 0-.925-.342Z" style="mix-blend-mode:overlay"/><path fill="url(#M)" d="M395.275 247.149a1.304 1.304 0 0 0-1.353 1.238v.099h2.689v-.099a1.293 1.293 0 0 0-.411-.896 1.29 1.29 0 0 0-.925-.342Z" style="mix-blend-mode:overlay"/><path fill="url(#N)" d="M414.126 247.149a1.302 1.302 0 0 0-1.353 1.238v.099h2.69v-.099a1.276 1.276 0 0 0-.412-.896 1.286 1.286 0 0 0-.925-.342Z" style="mix-blend-mode:overlay"/><path fill="url(#O)" d="M432.992 247.149a1.304 1.304 0 0 0-1.353 1.238.207.207 0 0 0 0 .099h2.673v-.099a1.288 1.288 0 0 0-1.32-1.238Z" style="mix-blend-mode:overlay"/><path fill="url(#P)" d="M451.851 247.149a1.304 1.304 0 0 0-1.353 1.238.207.207 0 0 0 0 .099h2.673v-.099a1.288 1.288 0 0 0-1.32-1.238Z" style="mix-blend-mode:overlay"/><path fill="url(#Q)" d="M470.705 247.149a1.304 1.304 0 0 0-1.353 1.238v.099h2.673v-.099a1.288 1.288 0 0 0-1.32-1.238Z" style="mix-blend-mode:overlay"/><path fill="url(#R)" d="M501.067 244.12c-.677.264-.842 1.485-.363 2.756.841-.281 1.65-.594 2.508-.957-.495-1.254-1.452-2.063-2.145-1.799Z" style="mix-blend-mode:overlay"/><path fill="url(#S)" d="M517.718 230.29c-.479.577 0 1.749 1.023 2.656a33.775 33.775 0 0 0 1.65-2.128c-.974-.825-2.195-1.089-2.673-.528Z" style="mix-blend-mode:overlay"/><path fill="url(#T)" d="M527.563 210.099c-.28.676.528 1.65 1.799 2.145.313-.809.627-1.65.94-2.508-1.254-.462-2.475-.314-2.739.363Z" style="mix-blend-mode:overlay"/><path fill="url(#U)" d="M409.07 1.398a15.265 15.265 0 0 1 0 6.468l1.832 1.072s.165-5.907-.908-7.97l-.924.43Z" opacity=".9" style="mix-blend-mode:overlay"/><path fill="url(#V)" d="M387.781 3.217a15.443 15.443 0 0 1 1.023 6.402l1.964.76s-.759-5.858-2.145-7.723l-.842.561Z" opacity=".9" style="mix-blend-mode:overlay"/><path fill="url(#W)" d="M367.086 8.294a15.462 15.462 0 0 1 1.996 6.154l2.079.446s-1.65-5.66-3.3-7.277l-.775.677Z" opacity=".9" style="mix-blend-mode:overlay"/><path fill="url(#X)" d="M347.297 16.64a15.327 15.327 0 0 1 2.937 5.774l2.112.116s-2.525-5.33-4.422-6.6l-.627.71Z" opacity=".9" style="mix-blend-mode:overlay"/><path fill="url(#Y)" d="M329.227 27.933a15.598 15.598 0 0 1 3.795 5.247l2.112-.132s-3.3-4.95-5.412-5.907l-.495.792Z" opacity=".9" style="mix-blend-mode:overlay"/><path fill="url(#Z)" d="M313.062 41.923a15.479 15.479 0 0 1 4.522 4.57l2.046-.527s-4.059-4.29-6.27-4.95l-.298.907Z" opacity=".9" style="mix-blend-mode:overlay"/><path fill="url(#aa)" d="M299.289 58.263c2 .884 3.789 2.183 5.247 3.812l1.931-.858s-4.67-3.597-7.029-3.944l-.149.99Z" opacity=".9" style="mix-blend-mode:overlay"/><path fill="url(#ab)" d="M288.258 76.561a15.48 15.48 0 0 1 5.775 2.937l1.782-1.138s-5.181-2.822-7.508-2.805l-.049 1.006Z" opacity=".9" style="mix-blend-mode:overlay"/><path fill="url(#ac)" d="M280.214 96.34a15.56 15.56 0 0 1 6.154 2.013l1.65-1.42s-5.56-1.963-7.854-1.65l.05 1.057Z" opacity=".9" style="mix-blend-mode:overlay"/><path fill="url(#ad)" d="M275.366 117.194a15.39 15.39 0 0 1 6.402 1.007l1.336-1.65s-5.808-1.089-8.002-.347l.264.99Z" opacity=".9" style="mix-blend-mode:overlay"/><path fill="url(#ae)" d="M273.827 138.471a15.604 15.604 0 0 1 6.484 0l1.056-1.831s-5.89-.149-7.953.924l.413.907Z" opacity=".9" style="mix-blend-mode:overlay"/><path fill="url(#af)" d="M275.663 159.752a15.372 15.372 0 0 1 6.385-1.006l.776-1.98s-5.858.775-7.722 2.145l.561.841Z" opacity=".9" style="mix-blend-mode:overlay"/><path fill="url(#ag)" d="M280.778 180.497a15.53 15.53 0 0 1 6.171-1.997l.446-2.062s-5.66 1.649-7.293 3.299l.676.76Z" opacity=".9" style="mix-blend-mode:overlay"/><path fill="url(#ah)" d="M288.965 200.243a6.759 6.759 0 0 1 3.762-1.914l-.215-1.931s-3.498 1.65-4.207 3.168l.66.677Z" opacity=".9" style="mix-blend-mode:overlay"/><path fill="url(#ai)" d="M297.294 221.485c.66-.858.99-1.469 2.211-1.65l-.71-1.749s-2.112 1.336-2.178 2.706l.677.693Z" opacity=".9" style="mix-blend-mode:overlay"/><path fill="url(#aj)" d="M310.052 238.228a6.408 6.408 0 0 1 2.954-2.954l-.809-1.782s-2.854 2.508-2.986 4.274l.841.462Z" opacity=".9" style="mix-blend-mode:overlay"/><path fill="url(#ak)" d="M330.591 248.035c.445-1.139.627-1.914 1.848-2.541l-1.172-1.502s-1.815 2.228-1.534 3.663l.858.38Z" opacity=".9" style="mix-blend-mode:overlay"/><path fill="url(#al)" d="M348.944 246.866a7.297 7.297 0 0 1 2.954-1.897l-1.155-.594s-2.822 1.65-2.805 2.475l1.006.016Z" opacity=".9" style="mix-blend-mode:overlay"/><path fill="url(#am)" d="M368.742 246.823a3.94 3.94 0 0 1 1.996-2.029l-1.402-.528s-1.98 1.831-1.65 2.59l1.056-.033Z" opacity=".9" style="mix-blend-mode:overlay"/><path fill="url(#an)" d="M389.601 246.768a2.303 2.303 0 0 1 1.023-2.112l-1.65-.445s-1.073 1.914-.347 2.64l.974-.083Z" opacity=".9" style="mix-blend-mode:overlay"/><path fill="url(#ao)" d="M410.919 246.725c-.314-.809-.611-1.304 0-2.145l-1.832-.33s-.165 1.947.908 2.623l.924-.148Z" opacity=".9" style="mix-blend-mode:overlay"/><path fill="url(#ap)" d="M432.205 246.672c-.676-.775-1.221-1.254-1.006-2.112l-1.98-.248a5.26 5.26 0 0 0 2.145 2.542l.841-.182Z" opacity=".9" style="mix-blend-mode:overlay"/><path fill="url(#aq)" d="M452.888 246.623c-1.039-.726-1.798-1.171-1.996-2.029l-2.08-.149a9.895 9.895 0 0 0 3.3 2.409l.776-.231Z" opacity=".9" style="mix-blend-mode:overlay"/><path fill="url(#ar)" d="M472.69 246.585a7.35 7.35 0 0 1-2.937-1.897h-2.112a16.988 16.988 0 0 0 4.422 2.21l.627-.313Z" opacity=".9" style="mix-blend-mode:overlay"/><path fill="url(#as)" d="M490.843 247.324c-.957-.792-1.65-1.221-1.881-2.574l-1.782.643s1.65 2.443 3.036 2.641l.627-.71Z" opacity=".9" style="mix-blend-mode:overlay"/><path fill="url(#at)" d="M511.924 237.461c-1.056-.627-1.798-.924-2.227-2.211l-1.65.924s1.897 2.128 3.3 2.079l.577-.792Z" opacity=".9" style="mix-blend-mode:overlay"/><path fill="url(#au)" d="M523.628 219.731c-1.139-.446-1.914-.627-2.541-1.848l-1.485 1.171s2.211 1.815 3.646 1.535l.38-.858Z" opacity=".9" style="mix-blend-mode:overlay"/><path fill="url(#av)" d="M531.847 198.613a7.245 7.245 0 0 1-3.894-1.98l-1.469 1.287s3.482 1.947 5.198 1.65l.165-.957Z" opacity=".9" style="mix-blend-mode:overlay"/><path fill="url(#aw)" d="M539.765 178.739a15.258 15.258 0 0 1-6.154-1.997l-1.65 1.419s5.56 1.964 7.854 1.65l-.05-1.072Z" opacity=".9" style="mix-blend-mode:overlay"/><path fill="url(#ax)" d="M544.614 157.936a15.654 15.654 0 0 1-6.402-1.006l-1.337 1.65s5.808 1.089 8.003.346l-.264-.99Z" opacity=".9" style="mix-blend-mode:overlay"/><path fill="url(#ay)" d="M546.15 136.641a15.609 15.609 0 0 1-6.485 0l-1.056 1.831s5.891.149 7.953-.924l-.412-.907Z" opacity=".9" style="mix-blend-mode:overlay"/><path fill="url(#az)" d="M544.334 115.344a15.454 15.454 0 0 1-6.402 1.006l-.776 1.98s5.858-.775 7.722-2.145l-.544-.841Z" opacity=".9" style="mix-blend-mode:overlay"/><path fill="url(#aA)" d="M539.202 94.602a15.457 15.457 0 0 1-6.154 1.996l-.462 2.063s5.659-1.65 7.293-3.3l-.677-.76Z" opacity=".9" style="mix-blend-mode:overlay"/><path fill="url(#aB)" d="M530.891 74.922a15.582 15.582 0 0 1-5.775 2.937L525 79.97s5.33-2.541 6.683-4.422l-.792-.627Z" opacity=".9" style="mix-blend-mode:overlay"/><path fill="url(#aC)" d="M519.598 56.773a15.356 15.356 0 0 1-5.231 3.812l.198 2.095s4.95-3.3 5.907-5.412l-.874-.495Z" opacity=".9" style="mix-blend-mode:overlay"/><path fill="url(#aD)" d="M505.689 40.617a15.585 15.585 0 0 1-4.587 4.587l.544 2.046s4.274-4.059 4.95-6.27l-.907-.363Z" opacity=".9" style="mix-blend-mode:overlay"/><path fill="url(#aE)" d="M489.272 26.86a15.435 15.435 0 0 1-3.795 5.23l.841 1.947s3.597-4.686 3.944-6.98l-.99-.198Z" opacity=".9" style="mix-blend-mode:overlay"/><path fill="url(#aF)" d="M471.047 15.82a15.322 15.322 0 0 1-2.953 5.759l1.155 1.782s2.821-5.181 2.805-7.491l-1.007-.05Z" opacity=".9" style="mix-blend-mode:overlay"/><path fill="url(#aG)" d="M451.239 7.763a15.701 15.701 0 0 1-1.997 6.171l1.403 1.568s1.98-5.56 1.65-7.838l-1.056.1Z" opacity=".9" style="mix-blend-mode:overlay"/><path fill="url(#aH)" d="M430.382 2.92a15.605 15.605 0 0 1-1.007 6.402l1.65 1.337s1.072-5.792.346-8.003l-.989.264Z" opacity=".9" style="mix-blend-mode:overlay"/><path fill="url(#aI)" d="M528.79 184.158a127.555 127.555 0 0 0-23.932-131.854 127.564 127.564 0 0 0-188.178-1.631 127.559 127.559 0 0 0-26.215 131.418 127.567 127.567 0 0 0 41.183 56.17l1.139-2.062a125.253 125.253 0 0 1 77.195-223.887 125.254 125.254 0 0 1 118.411 84.424A125.255 125.255 0 0 1 487.177 236.2l1.122 2.062a126.927 126.927 0 0 0 40.491-54.103Z" opacity=".8" style="mix-blend-mode:overlay"/><path fill="#000" d="m487.185 236.195-76.675 3.416-77.715-3.416-1.139 2.063 78.854 2.277 77.797-2.277-1.122-2.063Z" opacity=".4" style="mix-blend-mode:multiply"/><path fill="#E7EEF6" d="m421.555 69.477-12.133 49.934 10.733 1.4 7.934-49.934-6.534-1.4Z"/><path fill="#E7EEF6" d="m448.725 79.782-31.52 40.585 9.219 5.673 27.688-42.305-5.387-3.953Z"/><path fill="#E7EEF6" d="m467.47 101.086-45.783 23.337 5.933 9.054 43.045-26.523-3.195-5.868Z"/><path fill="#E7EEF6" d="m480.785 127.812-51.339 2.219 1.638 10.699 50.172-6.253-.471-6.665Z"/><path fill="#E7EEF6" d="m477.956 155.608-48.522-16.922-2.435 10.547 48.929 12.741 2.028-6.366Z"/><path fill="#E7EEF6" d="m466.933 182.253-37.979-34.616-6.381 8.744 39.995 30.931 4.365-5.059Z"/><path fill="#E7EEF6" d="m443.048 199.711-19.465-47.558-9.514 5.163 22.867 45.094 6.112-2.699Z"/><path fill="#E7EEF6" d="m415.478 209.024 1.276-51.371-10.787.907 2.829 50.481 6.682-.017Z"/><path fill="#E7EEF6" d="m386 206.142 22.124-46.38-10.218-3.573-18.013 47.242 6.107 2.711Z"/><path fill="#E7EEF6" d="m362.413 188.4 39.43-32.953-7.801-7.504-36.052 35.448 4.423 5.009Z"/><path fill="#E7EEF6" d="m347.081 165.357 48.463-17.087-4.685-9.758-46.171 20.606 2.393 6.239Z"/><path fill="#E7EEF6" d="m340.564 135.998 51.015 6.173.128-10.823-50.521-2.003-.622 6.653Z"/><path fill="#E7EEF6" d="m347.978 106.583 43.309 27.658 4.803-9.701-44.671-23.684-3.441 5.727Z"/><path fill="#E7EEF6" d="m366.27 84.119 28.607 42.688 8.286-6.966-31.446-39.592-5.447 3.87Z"/><path fill="#E7EEF6" d="m392.462 69.417 9.756 50.453 10.342-3.196-13.575-48.704-6.523 1.447Z"/><path fill="url(#aJ)" d="M457.467 71.113a81.726 81.726 0 0 0-128.951 66.408 81.724 81.724 0 0 0 20.513 54.438 83.033 83.033 0 0 0 6.6 6.6 120.313 120.313 0 0 0 10.379 7.838 91.01 91.01 0 0 0 5.527 3.432 56.077 56.077 0 0 0 17.408 6.996c1.947.528 3.894.973 5.857 1.336a75.786 75.786 0 0 0 18.15 1.139 87.67 87.67 0 0 0 7.755-.693 67.093 67.093 0 0 0 40.31-16.731c1.947-1.65 3.827-3.3 5.643-4.95 1.815-1.65 3.547-3.515 5.214-5.346a79.03 79.03 0 0 0 5.164-6.6 81.722 81.722 0 0 0-19.569-113.867Zm-85.42 120.698a66.115 66.115 0 1 1 92.152-15.807 66.093 66.093 0 0 1-42.802 26.995 66.088 66.088 0 0 1-49.35-11.188Z"/><path fill="url(#aK)" d="M436.39 156.345a32.047 32.047 0 0 1-33.245 12.745 32.051 32.051 0 0 1-24.497-25.837 32.039 32.039 0 0 1 14.495-32.52 32.05 32.05 0 0 1 35.591.946 32.034 32.034 0 0 1 13.079 20.747 32.033 32.033 0 0 1-5.423 23.919Z"/><path fill="url(#aL)" d="M418.242 143.473a9.766 9.766 0 0 1-10.137 3.883 9.764 9.764 0 0 1-7.465-7.88 9.768 9.768 0 0 1 15.275-9.616 9.788 9.788 0 0 1 2.327 13.613Z"/><path fill="url(#aM)" d="M418.704 121.584a5.606 5.606 0 0 1-5.822 2.24 5.612 5.612 0 0 1-4.294-4.525 5.612 5.612 0 0 1 10.284-3.935 5.595 5.595 0 0 1-.168 6.22Z"/><path fill="url(#aN)" d="m414.417 122.861-4.043-2.013-.28-4.505 3.762-2.491 4.042 1.996.281 4.521-3.762 2.492Z"/><path fill="url(#aO)" d="M434.29 138.654a5.613 5.613 0 0 1-8.656.63 5.612 5.612 0 0 1 7.319-8.435 5.61 5.61 0 0 1 1.337 7.805Z"/><path fill="url(#aP)" d="m430.011 139.939-4.042-2.013-.297-4.505 3.762-2.491 4.042 1.996.297 4.521-3.762 2.492Z"/><path fill="url(#aQ)" d="M400.61 154.005a5.61 5.61 0 1 1-9.173-6.461 5.61 5.61 0 0 1 9.173 6.461Z"/><path fill="url(#aR)" d="m396.292 155.275-4.043-2.013-.28-4.505 3.762-2.491 4.042 1.996.281 4.521-3.762 2.492Z"/><path fill="url(#aS)" d="M423.186 158.876a5.613 5.613 0 0 1-5.817 2.238 5.609 5.609 0 0 1 1.372-11.081 5.606 5.606 0 0 1 3.092 1.022 5.626 5.626 0 0 1 1.353 7.821Z"/><path fill="url(#aT)" d="m418.8 160.126-4.043-2.013-.28-4.504 3.762-2.492 4.042 2.013.281 4.505-3.762 2.491Z"/><path fill="url(#aU)" d="M397.61 131.157a5.597 5.597 0 0 1-8.624.612 5.6 5.6 0 0 1 1.076-8.578 5.595 5.595 0 0 1 7.548 7.966Z"/><path fill="url(#aV)" d="m393.331 132.423-4.043-2.013-.28-4.504 3.762-2.492 4.042 2.013.281 4.505-3.762 2.491Z"/><path stroke="#BDC7D2" stroke-width="4" d="M931.5 212.498c-26.5 0-46.8 5.007-82 13.007-44 10-101.924 20.547-144.5 9.497-79-20.504-100.5-79.015-172.5-92.004-72-12.989-112 29.999-117 68.497"/><path fill="url(#aW)" d="M935.289 60.946h6.099V71.11h-6.099z"/><path fill="url(#aX)" d="M971.187 60.272s1.016-.89 1.016-4.744c0-3.854-1.016-4.743-1.016-4.743h-65.73s-1.016.678-1.016 4.743c0 4.066 1.016 4.744 1.016 4.744h65.73Z"/><path fill="url(#aY)" d="M931.211 69.081h14.23v172.116h-14.23z"/><path fill="url(#aZ)" d="M836.977 246.973c0 1.654 41.863 2.995 93.511 2.995 51.649 0 93.512-1.355 93.512-2.995 0-1.64-41.863-2.995-93.512-2.995-51.648 0-93.511 1.342-93.511 2.995Z" style="mix-blend-mode:multiply"/><path fill="url(#ba)" d="M933.915 48.07h8.809s1.016 4.309 1.016 7.115c0 2.807-1.016 7.115-1.016 7.115h-8.809s-1.017-4.308-1.017-7.115c0-2.806 1.017-7.115 1.017-7.115Z"/><path fill="url(#bb)" d="M904.789 245.186a4 4 0 0 1 4-4h58.407a4 4 0 0 1 4 4v2.099h-66.407v-2.099Z"/><path fill="url(#bc)" d="M925 209h7.412s1.588 0 1.588 3.5-1.588 3.5-1.588 3.5H925v-7Z"/><path fill="#525164" d="M416 219.5c-1.6 0-3 0-4.5-.18V209s.5-.5 4-.5 4.5.5 4.5.5v10.32c-1.5.18-.855.18-4 .18Z"/><path fill="#285FF6" d="M607 209.354V169l28 15 30 25.354h-58Z"/><defs><linearGradient id="e" x1="410.714" x2="410.466" y1="249.898" y2="235.576" gradientUnits="userSpaceOnUse"><stop offset=".18" stop-color="#525164"/><stop offset=".4" stop-color="#fff"/><stop offset=".51" stop-color="#fff"/><stop offset=".7" stop-color="#99A4B0"/><stop offset=".78" stop-color="#fff"/></linearGradient><linearGradient id="g" x1="399.421" x2="399.208" y1="3.098" y2=".401" gradientUnits="userSpaceOnUse"><stop stop-color="#525164"/><stop offset="1" stop-color="#fff"/></linearGradient><linearGradient id="h" x1="378.451" x2="377.82" y1="6.341" y2="3.71" gradientUnits="userSpaceOnUse"><stop stop-color="#525164"/><stop offset="1" stop-color="#fff"/></linearGradient><linearGradient id="i" x1="351.865" x2="350.837" y1="18.597" y2="16.108" gradientUnits="userSpaceOnUse"><stop stop-color="#525164"/><stop offset="1" stop-color="#fff"/></linearGradient><linearGradient id="j" x1="339.621" x2="338.207" y1="22.523" y2="20.215" gradientUnits="userSpaceOnUse"><stop stop-color="#525164"/><stop offset="1" stop-color="#fff"/></linearGradient><linearGradient id="k" x1="322.428" x2="320.671" y1="34.811" y2="32.753" gradientUnits="userSpaceOnUse"><stop/><stop offset="1" stop-color="#fff"/></linearGradient><linearGradient id="l" x1="307.604" x2="305.547" y1="49.933" y2="48.175" gradientUnits="userSpaceOnUse"><stop stop-color="#525164"/><stop offset="1" stop-color="#fff"/></linearGradient><linearGradient id="m" x1="295.016" x2="292.709" y1="66.882" y2="65.468" gradientUnits="userSpaceOnUse"><stop/><stop offset="1" stop-color="#fff"/></linearGradient><linearGradient id="n" x1="267.958" x2="265.468" y1="101.369" y2="100.341" gradientUnits="userSpaceOnUse"><stop stop-color="#525164"/><stop offset="1" stop-color="#fff"/></linearGradient><linearGradient id="o" x1="279.039" x2="276.408" y1="106.277" y2="105.645" gradientUnits="userSpaceOnUse"><stop stop-color="#525164"/><stop offset="1" stop-color="#fff"/></linearGradient><linearGradient id="p" x1="275.332" x2="272.634" y1="126.753" y2="126.541" gradientUnits="userSpaceOnUse"><stop/><stop offset="1" stop-color="#fff"/></linearGradient><linearGradient id="q" x1="275.819" x2="273.121" y1="148.132" y2="148.344" gradientUnits="userSpaceOnUse"><stop/><stop offset="1" stop-color="#fff"/></linearGradient><linearGradient id="r" x1="278.472" x2="275.841" y1="169.03" y2="169.661" gradientUnits="userSpaceOnUse"><stop stop-color="#525164"/><stop offset="1" stop-color="#fff"/></linearGradient><linearGradient id="s" x1="284.817" x2="282.327" y1="223.55" y2="224.578" gradientUnits="userSpaceOnUse"><stop stop-color="#525164"/><stop offset="1" stop-color="#fff"/></linearGradient><linearGradient id="t" x1="294.344" x2="291.766" y1="208.763" y2="209.587" gradientUnits="userSpaceOnUse"><stop stop-color="#525164"/><stop offset="1" stop-color="#fff"/></linearGradient><linearGradient id="u" x1="544.463" x2="547.145" y1="126.685" y2="126.474" gradientUnits="userSpaceOnUse"><stop stop-color="#525164"/><stop offset="1" stop-color="#fff"/></linearGradient><linearGradient id="v" x1="558.04" x2="560.529" y1="213.98" y2="215.009" gradientUnits="userSpaceOnUse"><stop stop-color="#525164"/><stop offset="1" stop-color="#fff"/></linearGradient><linearGradient id="w" x1="541.415" x2="544.047" y1="168.773" y2="169.405" gradientUnits="userSpaceOnUse"><stop stop-color="#525164"/><stop offset="1" stop-color="#fff"/></linearGradient><linearGradient id="x" x1="544.26" x2="546.957" y1="148.305" y2="148.517" gradientUnits="userSpaceOnUse"><stop stop-color="#525164"/><stop offset="1" stop-color="#fff"/></linearGradient><linearGradient id="y" x1="541.156" x2="543.788" y1="106.325" y2="105.694" gradientUnits="userSpaceOnUse"><stop stop-color="#525164"/><stop offset="1" stop-color="#fff"/></linearGradient><linearGradient id="z" x1="556.83" x2="559.319" y1="85.669" y2="84.641" gradientUnits="userSpaceOnUse"><stop/><stop offset="1" stop-color="#fff"/></linearGradient><linearGradient id="A" x1="524.863" x2="527.171" y1="66.963" y2="65.549" gradientUnits="userSpaceOnUse"><stop/><stop offset="1" stop-color="#fff"/></linearGradient><linearGradient id="B" x1="512.432" x2="514.49" y1="50.056" y2="48.298" gradientUnits="userSpaceOnUse"><stop/><stop offset="1" stop-color="#fff"/></linearGradient><linearGradient id="C" x1="497.475" x2="499.243" y1="34.892" y2="32.821" gradientUnits="userSpaceOnUse"><stop stop-color="#525164"/><stop offset="1" stop-color="#fff"/></linearGradient><linearGradient id="D" x1="480.408" x2="481.822" y1="22.577" y2="20.27" gradientUnits="userSpaceOnUse"><stop/><stop offset="1" stop-color="#fff"/></linearGradient><linearGradient id="E" x1="468.987" x2="470.015" y1="12.709" y2="10.219" gradientUnits="userSpaceOnUse"><stop stop-color="#525164"/><stop offset="1" stop-color="#fff"/></linearGradient><linearGradient id="F" x1="441.479" x2="442.111" y1="6.339" y2="3.708" gradientUnits="userSpaceOnUse"><stop stop-color="#525164"/><stop offset="1" stop-color="#fff"/></linearGradient><linearGradient id="G" x1="420.574" x2="420.786" y1="3.086" y2=".389" gradientUnits="userSpaceOnUse"><stop stop-color="#525164"/><stop offset="1" stop-color="#fff"/></linearGradient><linearGradient id="H" x1="302.721" x2="300.663" y1="229.605" y2="231.363" gradientUnits="userSpaceOnUse"><stop stop-color="#525164"/><stop offset="1" stop-color="#fff"/></linearGradient><linearGradient id="I" x1="356.086" x2="354.923" y1="241.92" y2="244.355" gradientUnits="userSpaceOnUse"><stop/><stop offset="1" stop-color="#fff"/></linearGradient><linearGradient id="J" x1="338.697" x2="338.697" y1="247.133" y2="248.486" gradientUnits="userSpaceOnUse"><stop stop-color="#525164"/><stop offset="1" stop-color="#fff"/></linearGradient><linearGradient id="K" x1="357.548" x2="357.548" y1="247.134" y2="248.487" gradientUnits="userSpaceOnUse"><stop stop-color="#525164"/><stop offset="1" stop-color="#fff"/></linearGradient><linearGradient id="L" x1="376.408" x2="376.408" y1="247.133" y2="248.486" gradientUnits="userSpaceOnUse"><stop stop-color="#525164"/><stop offset="1" stop-color="#fff"/></linearGradient><linearGradient id="M" x1="395.275" x2="395.275" y1="247.133" y2="248.486" gradientUnits="userSpaceOnUse"><stop stop-color="#525164"/><stop offset="1" stop-color="#fff"/></linearGradient><linearGradient id="N" x1="414.126" x2="414.126" y1="247.133" y2="248.486" gradientUnits="userSpaceOnUse"><stop stop-color="#525164"/><stop offset="1" stop-color="#fff"/></linearGradient><linearGradient id="O" x1="432.992" x2="432.992" y1="247.133" y2="248.486" gradientUnits="userSpaceOnUse"><stop stop-color="#525164"/><stop offset="1" stop-color="#fff"/></linearGradient><linearGradient id="P" x1="451.851" x2="451.851" y1="247.133" y2="248.486" gradientUnits="userSpaceOnUse"><stop stop-color="#525164"/><stop offset="1" stop-color="#fff"/></linearGradient><linearGradient id="Q" x1="470.705" x2="470.705" y1="247.133" y2="248.486" gradientUnits="userSpaceOnUse"><stop/><stop offset="1" stop-color="#fff"/></linearGradient><linearGradient id="R" x1="500.83" x2="501.816" y1="243.963" y2="246.483" gradientUnits="userSpaceOnUse"><stop stop-color="#525164"/><stop offset="1" stop-color="#fff"/></linearGradient><linearGradient id="S" x1="517.68" x2="519.738" y1="229.922" y2="231.68" gradientUnits="userSpaceOnUse"><stop stop-color="#525164"/><stop offset="1" stop-color="#fff"/></linearGradient><linearGradient id="T" x1="527.149" x2="529.666" y1="210.495" y2="211.488" gradientUnits="userSpaceOnUse"><stop stop-color="#525164"/><stop offset="1" stop-color="#fff"/></linearGradient><linearGradient id="U" x1="409.07" x2="410.918" y1="4.962" y2="4.962" gradientUnits="userSpaceOnUse"><stop stop-color="#fff"/><stop offset="1"/></linearGradient><linearGradient id="V" x1="388.328" x2="390.137" y1="6.704" y2="6.417" gradientUnits="userSpaceOnUse"><stop stop-color="#fff"/><stop offset="1"/></linearGradient><linearGradient id="W" x1="368.081" x2="369.823" y1="11.715" y2="11.149" gradientUnits="userSpaceOnUse"><stop stop-color="#fff"/><stop offset="1"/></linearGradient><linearGradient id="X" x1="347.532" x2="349.162" y1="28.556" y2="27.732" gradientUnits="userSpaceOnUse"><stop stop-color="#fff"/><stop offset="1"/></linearGradient><linearGradient id="Y" x1="331.376" x2="332.857" y1="30.856" y2="29.78" gradientUnits="userSpaceOnUse"><stop stop-color="#fff"/><stop offset="1"/></linearGradient><linearGradient id="Z" x1="315.614" x2="316.909" y1="44.419" y2="43.123" gradientUnits="userSpaceOnUse"><stop stop-color="#fff"/><stop offset="1" stop-color="#525164"/></linearGradient><linearGradient id="aa" x1="302.119" x2="303.196" y1="60.291" y2="58.81" gradientUnits="userSpaceOnUse"><stop stop-color="#fff"/><stop offset="1"/></linearGradient><linearGradient id="ab" x1="272.385" x2="273.209" y1="78.982" y2="77.352" gradientUnits="userSpaceOnUse"><stop stop-color="#fff"/><stop offset="1" stop-color="#525164"/></linearGradient><linearGradient id="ac" x1="283.631" x2="284.197" y1="97.681" y2="95.939" gradientUnits="userSpaceOnUse"><stop stop-color="#fff"/><stop offset="1" stop-color="#525164"/></linearGradient><linearGradient id="ad" x1="279.044" x2="279.33" y1="117.841" y2="116.032" gradientUnits="userSpaceOnUse"><stop stop-color="#fff"/><stop offset="1" stop-color="#525164"/></linearGradient><linearGradient id="ae" x1="277.407" x2="277.407" y1="138.471" y2="136.64" gradientUnits="userSpaceOnUse"><stop stop-color="#fff"/><stop offset="1" stop-color="#525164"/></linearGradient><linearGradient id="af" x1="278.93" x2="278.643" y1="159.147" y2="157.338" gradientUnits="userSpaceOnUse"><stop stop-color="#fff"/><stop offset="1" stop-color="#525164"/></linearGradient><linearGradient id="ag" x1="283.909" x2="283.343" y1="179.588" y2="177.846" gradientUnits="userSpaceOnUse"><stop stop-color="#fff"/><stop offset="1" stop-color="#525164"/></linearGradient><linearGradient id="ah" x1="308.712" x2="307.873" y1="171.185" y2="169.563" gradientUnits="userSpaceOnUse"><stop stop-color="#fff"/><stop offset="1" stop-color="#525164"/></linearGradient><linearGradient id="ai" x1="276.752" x2="275.665" y1="183.562" y2="182.083" gradientUnits="userSpaceOnUse"><stop stop-color="#fff"/><stop offset="1" stop-color="#525164"/></linearGradient><linearGradient id="aj" x1="337.311" x2="336.004" y1="210.886" y2="209.579" gradientUnits="userSpaceOnUse"><stop stop-color="#fff"/><stop offset="1"/></linearGradient><linearGradient id="ak" x1="279.769" x2="278.278" y1="254.283" y2="253.212" gradientUnits="userSpaceOnUse"><stop stop-color="#fff"/><stop offset="1"/></linearGradient><linearGradient id="al" x1="328.074" x2="325.651" y1="272.54" y2="271.315" gradientUnits="userSpaceOnUse"><stop stop-color="#fff"/><stop offset="1"/></linearGradient><linearGradient id="am" x1="370.657" x2="368.397" y1="246.385" y2="245.651" gradientUnits="userSpaceOnUse"><stop stop-color="#fff"/><stop offset="1"/></linearGradient><linearGradient id="an" x1="390.754" x2="388.765" y1="245.747" y2="245.432" gradientUnits="userSpaceOnUse"><stop stop-color="#fff"/><stop offset="1"/></linearGradient><linearGradient id="ao" x1="410.919" x2="409.087" y1="245.553" y2="245.553" gradientUnits="userSpaceOnUse"><stop stop-color="#fff"/><stop offset="1"/></linearGradient><linearGradient id="ap" x1="431.737" x2="429.195" y1="245.487" y2="245.889" gradientUnits="userSpaceOnUse"><stop stop-color="#fff"/><stop offset="1"/></linearGradient><linearGradient id="aq" x1="452.36" x2="449.316" y1="245.437" y2="246.427" gradientUnits="userSpaceOnUse"><stop stop-color="#fff"/><stop offset="1"/></linearGradient><linearGradient id="ar" x1="506.046" x2="502.815" y1="248.583" y2="250.216" gradientUnits="userSpaceOnUse"><stop stop-color="#fff"/><stop offset="1"/></linearGradient><linearGradient id="as" x1="489.281" x2="487.795" y1="246.653" y2="247.73" gradientUnits="userSpaceOnUse"><stop stop-color="#fff"/><stop offset="1"/></linearGradient><linearGradient id="at" x1="507.496" x2="506.201" y1="233.042" y2="234.337" gradientUnits="userSpaceOnUse"><stop stop-color="#fff"/><stop offset="1"/></linearGradient><linearGradient id="au" x1="521.294" x2="520.224" y1="209.533" y2="211.024" gradientUnits="userSpaceOnUse"><stop stop-color="#fff"/><stop offset="1"/></linearGradient><linearGradient id="av" x1="528.226" x2="527.388" y1="188.92" y2="190.542" gradientUnits="userSpaceOnUse"><stop stop-color="#fff"/><stop offset="1"/></linearGradient><linearGradient id="aw" x1="536.691" x2="536.12" y1="177.604" y2="179.362" gradientUnits="userSpaceOnUse"><stop stop-color="#fff"/><stop offset="1"/></linearGradient><linearGradient id="ax" x1="541.25" x2="540.963" y1="157.201" y2="159.01" gradientUnits="userSpaceOnUse"><stop stop-color="#fff"/><stop offset="1"/></linearGradient><linearGradient id="ay" x1="542.586" x2="542.586" y1="136.624" y2="138.472" gradientUnits="userSpaceOnUse"><stop stop-color="#fff"/><stop offset="1" stop-color="#525164"/></linearGradient><linearGradient id="az" x1="540.774" x2="541.064" y1="116.079" y2="117.905" gradientUnits="userSpaceOnUse"><stop stop-color="#fff"/><stop offset="1"/></linearGradient><linearGradient id="aA" x1="535.956" x2="536.522" y1="95.886" y2="97.627" gradientUnits="userSpaceOnUse"><stop stop-color="#fff"/><stop offset="1" stop-color="#525164"/></linearGradient><linearGradient id="aB" x1="541.648" x2="542.472" y1="64.904" y2="66.534" gradientUnits="userSpaceOnUse"><stop stop-color="#fff"/><stop offset="1"/></linearGradient><linearGradient id="aC" x1="516.709" x2="517.795" y1="58.773" y2="60.269" gradientUnits="userSpaceOnUse"><stop stop-color="#fff"/><stop offset="1"/></linearGradient><linearGradient id="aD" x1="503.055" x2="504.362" y1="43.138" y2="44.445" gradientUnits="userSpaceOnUse"><stop stop-color="#fff"/><stop offset="1" stop-color="#525164"/></linearGradient><linearGradient id="aE" x1="487.179" x2="488.66" y1="29.795" y2="30.872" gradientUnits="userSpaceOnUse"><stop stop-color="#fff"/><stop offset="1"/></linearGradient><linearGradient id="aF" x1="475.531" x2="477.161" y1="23.791" y2="24.616" gradientUnits="userSpaceOnUse"><stop stop-color="#fff"/><stop offset="1"/></linearGradient><linearGradient id="aG" x1="450.12" x2="451.878" y1="11.098" y2="11.67" gradientUnits="userSpaceOnUse"><stop stop-color="#fff"/><stop offset="1"/></linearGradient><linearGradient id="aH" x1="429.822" x2="431.631" y1="6.423" y2="6.709" gradientUnits="userSpaceOnUse"><stop stop-color="#fff"/><stop offset="1"/></linearGradient><linearGradient id="aW" x1="941.388" x2="935.289" y1="64.968" y2="64.968" gradientUnits="userSpaceOnUse"><stop stop-color="#525164"/><stop offset=".264" stop-color="#737586"/><stop offset=".482" stop-color="#99A4B0"/><stop offset=".727" stop-color="#7B7F8F"/><stop offset="1" stop-color="#525164"/></linearGradient><linearGradient id="aX" x1="945.462" x2="945.462" y1="50.785" y2="60.272" gradientUnits="userSpaceOnUse"><stop stop-color="#525164"/><stop offset=".264" stop-color="#737586"/><stop offset=".482" stop-color="#BDC7D2"/><stop offset=".727" stop-color="#7B7F8F"/><stop offset="1" stop-color="#525164"/></linearGradient><linearGradient id="aY" x1="945.441" x2="931.211" y1="137.181" y2="137.181" gradientUnits="userSpaceOnUse"><stop stop-color="#525164"/><stop offset=".264" stop-color="#737586"/><stop offset=".482" stop-color="#99A4B0"/><stop offset=".727" stop-color="#7B7F8F"/><stop offset="1" stop-color="#525164"/></linearGradient><linearGradient id="ba" x1="943.74" x2="932.898" y1="53.701" y2="53.701" gradientUnits="userSpaceOnUse"><stop stop-color="#525164"/><stop offset=".264" stop-color="#737586"/><stop offset=".482" stop-color="#99A4B0"/><stop offset=".727" stop-color="#7B7F8F"/><stop offset="1" stop-color="#525164"/></linearGradient><linearGradient id="bc" x1="934" x2="925" y1="212.5" y2="212.5" gradientUnits="userSpaceOnUse"><stop stop-color="#525164"/><stop offset="1" stop-color="#99A4B0"/></linearGradient><radialGradient id="a" cx="0" cy="0" r="1" gradientTransform="matrix(-.00004 25 -402.155 -.0007 505.12 254)" gradientUnits="userSpaceOnUse"><stop stop-color="#BDC7D2"/><stop offset="1" stop-color="#E7EEF6" stop-opacity="0"/></radialGradient><radialGradient id="c" cx="0" cy="0" r="1" gradientTransform="matrix(-131.5 0 0 -8.58982 409.992 249)" gradientUnits="userSpaceOnUse"><stop stop-color="#BDC7D2"/><stop offset=".305" stop-color="#99A4B0"/><stop offset=".401" stop-color="#99A4B0"/><stop offset=".691" stop-color="#99A4B0"/><stop offset=".9" stop-color="#F4F5FA"/></radialGradient><radialGradient id="d" cx="0" cy="0" r="1" gradientTransform="matrix(146.768 0 0 146.767 409.992 137.542)" gradientUnits="userSpaceOnUse"><stop offset=".55" stop-color="#101012"/><stop offset=".6" stop-color="#272A38"/><stop offset=".83" stop-color="#525164"/><stop offset=".88" stop-color="#323232"/><stop offset=".91" stop-color="#12151E"/><stop offset=".94" stop-color="#525164"/><stop offset=".98" stop-color="#505050"/></radialGradient><radialGradient id="f" cx="0" cy="0" r="1" gradientTransform="matrix(212.636 0 0 19.1372 403.52 95.374)" gradientUnits="userSpaceOnUse"><stop offset=".61" stop-color="#525164"/><stop offset=".64" stop-color="#fff"/><stop offset=".76" stop-color="#525164"/></radialGradient><radialGradient id="aI" cx="0" cy="0" r="1" gradientTransform="translate(409.99 137.545) scale(127.594)" gradientUnits="userSpaceOnUse"><stop offset=".98" stop-color="#fff"/><stop offset="1"/></radialGradient><radialGradient id="aJ" cx="0" cy="0" r="1" gradientTransform="rotate(35.272 -13.87 714.734) scale(82.0501 82.0502)" gradientUnits="userSpaceOnUse"><stop stop-color="#F4F5FA"/><stop offset=".74" stop-color="#E7EEF6"/><stop offset=".78" stop-color="#BDC7D2"/><stop offset=".87" stop-color="#E7EEF6"/><stop offset=".93" stop-color="#F4F5FA"/><stop offset="1" stop-color="#8B8D92"/></radialGradient><radialGradient id="aK" cx="0" cy="0" r="1" gradientTransform="rotate(35.272 -13.966 714.704) scale(32.1837)" gradientUnits="userSpaceOnUse"><stop stop-color="#EEE"/><stop offset="0" stop-color="#E7EEF6"/><stop offset=".84" stop-color="#E7EEF6"/><stop offset="1" stop-color="#BDC7D2"/></radialGradient><radialGradient id="aL" cx="0" cy="0" r="1" gradientTransform="rotate(35.272 -13.962 714.704) scale(9.81088)" gradientUnits="userSpaceOnUse"><stop stop-color="#E7EEF6"/><stop offset="1" stop-color="#99A4B0"/></radialGradient><radialGradient id="aM" cx="0" cy="0" r="1" gradientTransform="rotate(35.272 18.759 711.035) scale(5.63463)" gradientUnits="userSpaceOnUse"><stop stop-color="#F4F5FA"/><stop offset=".44" stop-color="#BDC7D2"/><stop offset=".92" stop-color="#C3C2C5"/><stop offset="1" stop-color="#99A4B0"/></radialGradient><radialGradient id="aN" cx="0" cy="0" r="1" gradientTransform="rotate(35.272 18.776 711.034) scale(4.35855)" gradientUnits="userSpaceOnUse"><stop stop-color="#E7EEF6"/><stop offset=".56" stop-color="#BDC7D2"/><stop offset=".78" stop-color="#99A4B0"/><stop offset="1" stop-color="#525164"/></radialGradient><radialGradient id="aO" cx="0" cy="0" r="1" gradientTransform="rotate(35.288 -.195 743.76) scale(5.63247 5.63354)" gradientUnits="userSpaceOnUse"><stop stop-color="#F4F5FA"/><stop offset=".44" stop-color="#BDC7D2"/><stop offset=".92" stop-color="#C3C2C5"/><stop offset="1" stop-color="#99A4B0"/></radialGradient><radialGradient id="aP" cx="0" cy="0" r="1" gradientTransform="rotate(35.217 -.649 745.213) scale(4.36448 4.36151)" gradientUnits="userSpaceOnUse"><stop stop-color="#E7EEF6"/><stop offset=".56" stop-color="#BDC7D2"/><stop offset=".78" stop-color="#99A4B0"/><stop offset="1" stop-color="#525164"/></radialGradient><radialGradient id="aQ" cx="0" cy="0" r="1" gradientTransform="matrix(4.59755 3.2538 -3.25443 4.59843 395.944 152.123)" gradientUnits="userSpaceOnUse"><stop stop-color="#F4F5FA"/><stop offset=".44" stop-color="#BDC7D2"/><stop offset=".92" stop-color="#C3C2C5"/><stop offset="1" stop-color="#99A4B0"/></radialGradient><radialGradient id="aR" cx="0" cy="0" r="1" gradientTransform="rotate(35.272 -41.265 698.735) scale(4.35855)" gradientUnits="userSpaceOnUse"><stop stop-color="#E7EEF6"/><stop offset=".56" stop-color="#BDC7D2"/><stop offset=".78" stop-color="#99A4B0"/><stop offset="1" stop-color="#525164"/></radialGradient><radialGradient id="aS" cx="0" cy="0" r="1" gradientTransform="matrix(4.5949 3.2538 -3.25505 4.59666 418.519 156.991)" gradientUnits="userSpaceOnUse"><stop stop-color="#F4F5FA"/><stop offset=".44" stop-color="#BDC7D2"/><stop offset=".92" stop-color="#C3C2C5"/><stop offset="1" stop-color="#99A4B0"/></radialGradient><radialGradient id="aT" cx="0" cy="0" r="1" gradientTransform="rotate(35.272 -37.64 736.56) scale(4.35855)" gradientUnits="userSpaceOnUse"><stop stop-color="#E7EEF6"/><stop offset=".56" stop-color="#BDC7D2"/><stop offset=".78" stop-color="#99A4B0"/><stop offset="1" stop-color="#525164"/></radialGradient><radialGradient id="aU" cx="0" cy="0" r="1" gradientTransform="matrix(4.58403 3.24423 -3.24485 4.5849 392.967 129.267)" gradientUnits="userSpaceOnUse"><stop stop-color="#F4F5FA"/><stop offset=".44" stop-color="#BDC7D2"/><stop offset=".92" stop-color="#C3C2C5"/><stop offset="1" stop-color="#99A4B0"/></radialGradient><radialGradient id="aV" cx="0" cy="0" r="1" gradientTransform="rotate(35.272 -6.805 682.652) scale(4.35855)" gradientUnits="userSpaceOnUse"><stop stop-color="#E7EEF6"/><stop offset=".56" stop-color="#BDC7D2"/><stop offset=".78" stop-color="#99A4B0"/><stop offset="1" stop-color="#525164"/></radialGradient><radialGradient id="aZ" cx="0" cy="0" r="1" gradientTransform="matrix(-93.3647 0 0 -2.71936 930.736 265.747)" gradientUnits="userSpaceOnUse"><stop/><stop offset=".04" stop-color="#282828"/><stop offset=".1" stop-color="#555"/><stop offset=".16" stop-color="#7E7E7E"/><stop offset=".23" stop-color="#A1A1A1"/><stop offset=".3" stop-color="#BEBEBE"/><stop offset=".38" stop-color="#D6D6D6"/><stop offset=".46" stop-color="#E8E8E8"/><stop offset=".57" stop-color="#F5F5F5"/><stop offset=".71" stop-color="#FDFDFD"/><stop offset="1" stop-color="#fff"/></radialGradient><radialGradient id="bb" cx="0" cy="0" r="1" gradientTransform="matrix(0 2.71048 -29.5142 0 937.993 246.607)" gradientUnits="userSpaceOnUse"><stop stop-color="#525164"/><stop offset=".586" stop-color="#99A4B0"/><stop offset="1" stop-color="#525164"/></radialGradient><filter id="b" width="346" height="31.197" x="236.992" y="233.258" color-interpolation-filters="sRGB" filterUnits="userSpaceOnUse"><feFlood flood-opacity="0" result="BackgroundImageFix"/><feBlend in="SourceGraphic" in2="BackgroundImageFix" result="shape"/><feGaussianBlur result="effect1_foregroundBlur_1134_293716" stdDeviation="4"/></filter></defs></svg>