<svg width="844" height="633" viewBox="0 0 844 633" fill="none" xmlns="http://www.w3.org/2000/svg">
<path d="M564.384 134.117L462.419 599.851H278.238L189.133 134.117H564.384Z" fill="url(#paint0_linear_1206_294924)"/>
<ellipse cx="198.574" cy="606.812" rx="198.215" ry="25.2115" fill="url(#paint1_radial_1206_294924)"/>
<ellipse cx="645.426" cy="606.812" rx="198.215" ry="25.2115" fill="url(#paint2_radial_1206_294924)"/>
<path d="M370.376 616.827C422.558 616.827 464.861 608.964 464.861 599.264C464.861 589.564 422.558 581.701 370.376 581.701C318.193 581.701 275.891 589.564 275.891 599.264C275.891 608.964 318.193 616.827 370.376 616.827Z" fill="#525164"/>
<path d="M279.528 604.059C290.884 596.697 327.17 591.375 370.376 591.375C413.581 591.375 450.222 596.697 461.223 604.059C463.53 602.551 464.861 600.955 464.861 599.269C464.861 589.601 422.542 581.529 370.376 581.529C318.209 581.529 275.891 589.423 275.891 599.269C275.891 600.955 277.221 602.551 279.528 604.059Z" fill="#71737E"/>
<path d="M376.85 118.852H364.43V616.825H376.85V118.852Z" fill="url(#paint3_linear_1206_294924)"/>
<path d="M328.533 207.651L267.672 146.89V60.8495L328.533 0H414.501L475.361 60.8495V146.89L414.501 207.651H328.533Z" fill="#285FF6"/>
<path d="M411.631 201.883H330.099L272.609 144.404V63.2417L330.099 5.76282H411.631L469.12 63.2417V144.404L411.631 201.883ZM331.784 196.915H408.881L463.442 142.364V65.2818L408.881 10.7301H331.784L277.223 65.2818V142.364L331.784 196.915Z" fill="white"/>
<path d="M370.721 28.2959C370.019 28.2959 369.333 28.0878 368.749 27.698C368.165 27.3081 367.711 26.754 367.442 26.1056C367.173 25.4573 367.103 24.7439 367.24 24.0557C367.377 23.3674 367.715 22.7352 368.211 22.239C368.708 21.7428 369.34 21.4048 370.028 21.2679C370.717 21.131 371.43 21.2013 372.079 21.4699C372.727 21.7384 373.281 22.1932 373.671 22.7766C374.061 23.3601 374.269 24.0461 374.269 24.7479C374.269 25.2138 374.178 25.6752 373.999 26.1056C373.821 26.5361 373.559 26.9272 373.23 27.2567C372.9 27.5862 372.509 27.8475 372.079 28.0258C371.648 28.2042 371.187 28.2959 370.721 28.2959Z" fill="#BDC7D2"/>
<path d="M373.834 24.7538C373.852 25.3713 373.685 25.9801 373.354 26.5021C373.024 27.0242 372.546 27.4359 371.98 27.6845C371.414 27.9332 370.787 28.0075 370.179 27.8979C369.571 27.7883 369.01 27.4998 368.567 27.0694C368.123 26.6389 367.819 26.0861 367.691 25.4816C367.564 24.8771 367.62 24.2483 367.853 23.6759C368.085 23.1034 368.482 22.6132 368.995 22.268C369.507 21.9228 370.111 21.7382 370.729 21.738C371.537 21.7376 372.314 22.0525 372.894 22.6157C373.474 23.1789 373.811 23.9459 373.834 24.7538Z" fill="url(#paint4_radial_1206_294924)"/>
<path style="mix-blend-mode:screen" d="M371.085 21.738H370.375V27.7697H371.085V21.738Z" fill="url(#paint5_linear_1206_294924)"/>
<path style="mix-blend-mode:screen" d="M373.744 24.3862H367.711V25.0958H373.744V24.3862Z" fill="url(#paint6_linear_1206_294924)"/>
<path d="M370.721 186.189C370.019 186.189 369.333 185.981 368.749 185.591C368.165 185.201 367.711 184.647 367.442 183.998C367.173 183.35 367.103 182.637 367.24 181.948C367.377 181.26 367.715 180.628 368.211 180.132C368.708 179.636 369.34 179.298 370.028 179.161C370.717 179.024 371.43 179.094 372.079 179.363C372.727 179.631 373.281 180.086 373.671 180.669C374.061 181.253 374.269 181.939 374.269 182.641C374.269 183.107 374.178 183.568 373.999 183.998C373.821 184.429 373.559 184.82 373.23 185.15C372.9 185.479 372.509 185.74 372.079 185.919C371.648 186.097 371.187 186.189 370.721 186.189Z" fill="#BDC7D2"/>
<path d="M373.835 182.9C373.835 183.514 373.653 184.115 373.312 184.625C372.971 185.136 372.486 185.534 371.918 185.769C371.351 186.004 370.727 186.065 370.124 185.945C369.522 185.826 368.969 185.53 368.534 185.096C368.1 184.662 367.804 184.108 367.685 183.506C367.565 182.904 367.626 182.28 367.861 181.712C368.096 181.145 368.494 180.66 369.005 180.319C369.516 179.978 370.116 179.796 370.73 179.796C371.554 179.796 372.344 180.123 372.926 180.705C373.508 181.287 373.835 182.077 373.835 182.9Z" fill="url(#paint7_radial_1206_294924)"/>
<path style="mix-blend-mode:screen" d="M371.085 179.796H370.375V185.828H371.085V179.796Z" fill="url(#paint8_linear_1206_294924)"/>
<path style="mix-blend-mode:screen" d="M373.744 182.552H367.711V183.261H373.744V182.552Z" fill="url(#paint9_linear_1206_294924)"/>
<path d="M156.909 298.397V307.267H121.422V298.397C121.601 295.981 122.689 293.723 124.467 292.077C126.245 290.431 128.581 289.52 131.003 289.527H147.239C148.573 289.522 149.893 289.795 151.115 290.33C152.338 290.864 153.435 291.648 154.336 292.631C155.798 294.222 156.701 296.246 156.909 298.397Z" fill="#8B8D92"/>
<path d="M149.999 305.932H128.352V588.182H149.999V305.932Z" fill="#71737E"/>
<path d="M172.526 588.009H105.898V605.927H172.526V588.009Z" fill="#8B8D92"/>
<path d="M172.082 588.009V605.75H138.99C138.504 602.742 136.958 600.007 134.631 598.039C132.305 596.071 129.351 594.999 126.304 595.017H105.898V588.009H172.082Z" fill="#71737E"/>
<path d="M156.919 298.385V307.256H149.999V588.175H139.175C139.088 584.433 137.917 580.797 135.804 577.708C134.029 575.135 131.634 528.567 128.795 527.059H128.351V506.658H139.175V439.599C139.188 435.58 137.981 431.653 135.715 428.334C133.866 425.549 131.33 423.288 128.351 421.77V401.901H139.175V317.368C139.293 313.765 138.402 310.201 136.602 307.078L135.804 305.925C135.224 305.099 134.571 304.327 133.852 303.619C132.069 301.844 129.96 300.428 127.642 299.45C125.799 298.697 123.856 298.219 121.875 298.031C122.054 295.615 123.143 293.357 124.92 291.711C126.698 290.065 129.034 289.154 131.457 289.16H147.248C148.609 289.2 149.946 289.529 151.17 290.125C152.394 290.722 153.477 291.572 154.346 292.62C155.808 294.211 156.711 296.235 156.919 298.385Z" fill="#71737E"/>
<path d="M139.445 289.967C154.585 289.967 166.859 277.696 166.859 262.558C166.859 247.421 154.585 235.149 139.445 235.149C124.305 235.149 112.031 247.421 112.031 262.558C112.031 277.696 124.305 289.967 139.445 289.967Z" fill="#285FF6"/>
<path opacity="0.4" d="M139.436 281.188C149.725 281.188 158.066 272.848 158.066 262.561C158.066 252.273 149.725 243.933 139.436 243.933C129.146 243.933 120.805 252.273 120.805 262.561C120.805 272.848 129.146 281.188 139.436 281.188Z" fill="#E29015"/>
<path d="M139.446 274.795C146.208 274.795 151.689 269.315 151.689 262.554C151.689 255.794 146.208 250.313 139.446 250.313C132.685 250.313 127.203 255.794 127.203 262.554C127.203 269.315 132.685 274.795 139.446 274.795Z" fill="#FBDA4F"/>
<path d="M620.026 298.397V307.267H584.539V298.397C584.719 295.981 585.807 293.723 587.585 292.077C589.362 290.431 591.698 289.52 594.121 289.527H610.267C611.688 289.515 613.094 289.819 614.383 290.417C615.672 291.016 616.812 291.893 617.72 292.986C619.017 294.516 619.821 296.402 620.026 298.397Z" fill="#8B8D92"/>
<path d="M613.1 305.932H591.453V588.182H613.1V305.932Z" fill="#71737E"/>
<path d="M635.542 588.009H568.914V605.927H635.542V588.009Z" fill="#8B8D92"/>
<path d="M635.808 588.009V605.75H602.361C601.827 602.713 600.213 599.971 597.816 598.031C595.419 596.091 592.401 595.083 589.319 595.194H568.914V588.009H635.808Z" fill="#71737E"/>
<path d="M620.031 298.386V307.256H613.111V588.175H602.288C602.201 584.433 601.03 580.797 598.916 577.708C597.142 575.136 594.747 528.567 591.996 527.059H591.464V506.658H602.288V439.599C602.3 435.581 601.094 431.653 598.828 428.334C596.979 425.549 594.443 423.288 591.464 421.77V401.901H602.288V317.368C602.299 313.731 601.284 310.165 599.36 307.079C599.125 306.674 598.858 306.288 598.562 305.925C598.009 305.079 597.353 304.304 596.61 303.619C594.858 301.846 592.779 300.431 590.488 299.45C588.612 298.708 586.641 298.23 584.633 298.031C584.812 295.615 585.9 293.357 587.678 291.711C589.456 290.065 591.792 289.154 594.214 289.161H610.361C611.782 289.149 613.188 289.453 614.477 290.051C615.766 290.65 616.906 291.527 617.813 292.62C619.147 294.258 619.924 296.277 620.031 298.386Z" fill="#71737E"/>
<path d="M602.547 289.967C617.687 289.967 629.961 277.696 629.961 262.558C629.961 247.421 617.687 235.149 602.547 235.149C587.406 235.149 575.133 247.421 575.133 262.558C575.133 277.696 587.406 289.967 602.547 289.967Z" fill="#285FF6"/>
<path opacity="0.4" d="M620.61 267.207C623.173 257.243 617.171 247.089 607.206 244.527C597.241 241.965 587.085 247.966 584.522 257.929C581.96 267.893 587.961 278.047 597.927 280.609C607.892 283.171 618.048 277.17 620.61 267.207Z" fill="#E29015"/>
<path d="M602.54 274.795C609.302 274.795 614.783 269.315 614.783 262.554C614.783 255.794 609.302 250.313 602.54 250.313C595.778 250.313 590.297 255.794 590.297 262.554C590.297 269.315 595.778 274.795 602.54 274.795Z" fill="#FBDA4F"/>
<path d="M645.4 463.552H92.5078V516.153H645.4V463.552Z" fill="#FFFBF2"/>
<path d="M131.629 463.373L92.5078 503.364V481.905L110.637 463.373H131.629Z" fill="#E29015"/>
<path d="M178.577 463.373L127.999 516.404H107.289L157.867 463.373H178.577Z" fill="#E29015"/>
<path d="M227.253 463.373L175.354 516.404H154.227L206.038 463.373H227.253Z" fill="#E29015"/>
<path d="M275.079 463.373L223.86 516.404H202.922L254.141 463.373H275.079Z" fill="#E29015"/>
<path d="M322.891 463.373L271.697 516.404H250.734L301.929 463.373H322.891Z" fill="#E29015"/>
<path d="M371.573 463.373L319.762 516.404H298.547L350.358 463.373H371.573Z" fill="#E29015"/>
<path d="M418.522 463.373L367.92 516.404H347.234L397.837 463.373H418.522Z" fill="#E29015"/>
<path d="M466.329 463.373L415.135 516.404H394.172L445.366 463.373H466.329Z" fill="#E29015"/>
<path d="M514.149 463.373L462.955 516.404H441.992L493.273 463.373H514.149Z" fill="#E29015"/>
<path d="M562.831 463.373L511.02 516.404H489.805L541.703 463.373H562.831Z" fill="#E29015"/>
<path d="M610.649 463.373L559.455 516.404H538.492L589.686 463.373H610.649Z" fill="#E29015"/>
<path d="M586.305 516.404H607.267L645.333 476.848V463.373H637.499L586.305 516.404Z" fill="#E29015"/>
<path d="M645.426 498.144V516.4H628.039L645.426 498.144Z" fill="#E29015"/>
<path d="M647.175 305.932H92.5078V411.044H647.175V305.932Z" fill="#FFFBF2"/>
<path d="M155.941 305.932L92.5078 369.354V335.559L122.14 305.932H155.941Z" fill="#E29015"/>
<path d="M583.836 410.95L647.181 347.528V381.323L617.638 410.95H583.836Z" fill="#E29015"/>
<path d="M223.367 305.932L118.502 411.044H92.5078V403.15L189.654 305.932H223.367Z" fill="#E29015"/>
<path d="M290.878 305.932L185.924 411.044H152.211L257.165 305.932H290.878Z" fill="#E29015"/>
<path d="M358.393 305.932L253.439 411.044H219.727L324.592 305.932H358.393Z" fill="#E29015"/>
<path d="M425.823 305.932L320.958 411.044H287.156L392.11 305.932H425.823Z" fill="#E29015"/>
<path d="M495.206 305.932L390.252 411.044H356.539L461.404 305.932H495.206Z" fill="#E29015"/>
<path d="M572.206 305.932L467.252 411.044H433.539L538.404 305.932H572.206Z" fill="#E29015"/>
<path d="M647.167 305.932L542.302 411.044H508.5L613.454 305.932H647.167Z" fill="#E29015"/>
<g style="mix-blend-mode:screen" opacity="0.3">
<path d="M285.553 394.019H116.456C113.656 394.019 110.971 392.907 108.991 390.927C107.011 388.948 105.898 386.263 105.898 383.463C105.898 380.664 107.011 377.979 108.991 375.999C110.971 374.02 113.656 372.908 116.456 372.908H285.553C286.958 372.872 288.355 373.119 289.662 373.635C290.969 374.15 292.158 374.924 293.16 375.909C294.162 376.894 294.955 378.07 295.492 379.368C296.03 380.666 296.3 382.059 296.288 383.463C296.288 384.865 296.009 386.252 295.468 387.544C294.926 388.837 294.132 390.008 293.133 390.991C292.134 391.973 290.949 392.747 289.648 393.267C288.346 393.787 286.954 394.042 285.553 394.019Z" fill="#FFFBF2"/>
</g>
<g style="mix-blend-mode:screen" opacity="0.3">
<path d="M243.589 508.796H116.456C113.656 508.796 110.971 507.684 108.991 505.704C107.011 503.725 105.898 501.04 105.898 498.24C105.922 495.456 107.044 492.794 109.022 490.834C110.999 488.873 113.671 487.774 116.456 487.774H243.589C245.868 487.76 248.085 488.51 249.888 489.902C251.265 490.924 252.372 492.266 253.114 493.811C253.856 495.357 254.211 497.06 254.147 498.773C254.01 501.479 252.838 504.029 250.872 505.895C248.907 507.761 246.299 508.799 243.589 508.796Z" fill="#FFFBF2"/>
</g>
<path d="M306.181 120.242V91.1513H325.783V96.2223H312.331V103.154H324.774V108.225H312.331V115.171H325.84V120.242H306.181ZM330.843 120.242V91.1513H342.32C344.517 91.1513 346.392 91.5443 347.945 92.3303C349.508 93.1068 350.696 94.21 351.51 95.6399C352.334 97.0604 352.746 98.7318 352.746 100.654C352.746 102.586 352.33 104.248 351.496 105.64C350.663 107.022 349.455 108.083 347.874 108.822C346.302 109.56 344.399 109.93 342.164 109.93H334.479V104.987H341.169C342.344 104.987 343.319 104.826 344.096 104.504C344.872 104.182 345.45 103.699 345.829 103.055C346.217 102.411 346.411 101.611 346.411 100.654C346.411 99.6882 346.217 98.8738 345.829 98.2109C345.45 97.5481 344.867 97.0462 344.081 96.7053C343.305 96.3549 342.325 96.1797 341.141 96.1797H336.993V120.242H330.843ZM346.553 107.004L353.783 120.242H346.993L339.919 107.004H346.553ZM357.263 120.242V91.1513H368.74C370.937 91.1513 372.812 91.5443 374.365 92.3303C375.928 93.1068 377.116 94.21 377.93 95.6399C378.754 97.0604 379.166 98.7318 379.166 100.654C379.166 102.586 378.75 104.248 377.916 105.64C377.083 107.022 375.875 108.083 374.294 108.822C372.722 109.56 370.819 109.93 368.584 109.93H360.899V104.987H367.589C368.764 104.987 369.739 104.826 370.516 104.504C371.292 104.182 371.87 103.699 372.249 103.055C372.637 102.411 372.831 101.611 372.831 100.654C372.831 99.6882 372.637 98.8738 372.249 98.2109C371.87 97.5481 371.287 97.0462 370.501 96.7053C369.725 96.3549 368.745 96.1797 367.561 96.1797H363.413V120.242H357.263ZM372.973 107.004L380.203 120.242H373.413L366.339 107.004H372.973ZM410.416 105.697C410.416 108.869 409.814 111.568 408.612 113.793C407.419 116.019 405.79 117.719 403.725 118.893C401.67 120.058 399.36 120.64 396.794 120.64C394.208 120.64 391.888 120.053 389.833 118.879C387.778 117.704 386.154 116.004 384.961 113.779C383.768 111.554 383.171 108.86 383.171 105.697C383.171 102.524 383.768 99.8255 384.961 97.6001C386.154 95.3748 387.778 93.6797 389.833 92.5149C391.888 91.3407 394.208 90.7536 396.794 90.7536C399.36 90.7536 401.67 91.3407 403.725 92.5149C405.79 93.6797 407.419 95.3748 408.612 97.6001C409.814 99.8255 410.416 102.524 410.416 105.697ZM404.18 105.697C404.18 103.642 403.872 101.909 403.257 100.498C402.651 99.0869 401.794 98.0168 400.686 97.2876C399.578 96.5585 398.28 96.1939 396.794 96.1939C395.307 96.1939 394.009 96.5585 392.902 97.2876C391.794 98.0168 390.932 99.0869 390.316 100.498C389.71 101.909 389.407 103.642 389.407 105.697C389.407 107.752 389.71 109.485 390.316 110.896C390.932 112.307 391.794 113.377 392.902 114.106C394.009 114.835 395.307 115.2 396.794 115.2C398.28 115.2 399.578 114.835 400.686 114.106C401.794 113.377 402.651 112.307 403.257 110.896C403.872 109.485 404.18 107.752 404.18 105.697ZM415.142 120.242V91.1513H426.619C428.816 91.1513 430.691 91.5443 432.244 92.3303C433.807 93.1068 434.995 94.21 435.809 95.6399C436.633 97.0604 437.045 98.7318 437.045 100.654C437.045 102.586 436.629 104.248 435.795 105.64C434.962 107.022 433.755 108.083 432.173 108.822C430.601 109.56 428.698 109.93 426.463 109.93H418.778V104.987H425.469C426.643 104.987 427.618 104.826 428.395 104.504C429.171 104.182 429.749 103.699 430.128 103.055C430.516 102.411 430.71 101.611 430.71 100.654C430.71 99.6882 430.516 98.8738 430.128 98.2109C429.749 97.5481 429.166 97.0462 428.38 96.7053C427.604 96.3549 426.624 96.1797 425.44 96.1797H421.292V120.242H415.142ZM430.852 107.004L438.082 120.242H431.292L424.219 107.004H430.852Z" fill="white"/>
<defs>
<linearGradient id="paint0_linear_1206_294924" x1="376.758" y1="134.117" x2="376.758" y2="599.851" gradientUnits="userSpaceOnUse">
<stop stop-color="#E3EFFE" stop-opacity="0"/>
<stop offset="0.648958" stop-color="#E3EFFE"/>
<stop offset="1" stop-color="#E3EFFE"/>
</linearGradient>
<radialGradient id="paint1_radial_1206_294924" cx="0" cy="0" r="1" gradientUnits="userSpaceOnUse" gradientTransform="translate(152.099 602.465) rotate(90) scale(21.7341 170.875)">
<stop stop-color="#BDC7D2"/>
<stop offset="1" stop-color="#E7EEF6" stop-opacity="0"/>
</radialGradient>
<radialGradient id="paint2_radial_1206_294924" cx="0" cy="0" r="1" gradientUnits="userSpaceOnUse" gradientTransform="translate(598.95 602.465) rotate(90) scale(21.7341 170.875)">
<stop stop-color="#BDC7D2"/>
<stop offset="1" stop-color="#E7EEF6" stop-opacity="0"/>
</radialGradient>
<linearGradient id="paint3_linear_1206_294924" x1="364.43" y1="367.838" x2="376.85" y2="367.838" gradientUnits="userSpaceOnUse">
<stop stop-color="#99A4B0"/>
<stop offset="0.0001" stop-color="#99A4B0"/>
<stop offset="0.216667" stop-color="#99A4B0"/>
<stop offset="0.513542" stop-color="#E7EEF6"/>
<stop offset="0.7" stop-color="#E7EEF6"/>
<stop offset="0.86" stop-color="#99A4B0"/>
<stop offset="0.88" stop-color="#99A4B0"/>
<stop offset="1" stop-color="#99A4B0"/>
</linearGradient>
<radialGradient id="paint4_radial_1206_294924" cx="0" cy="0" r="1" gradientUnits="userSpaceOnUse" gradientTransform="translate(369.666 24.399) scale(5.23436 5.23341)">
<stop stop-color="#E7EEF6"/>
<stop offset="0.39" stop-color="#BDC7D2"/>
<stop offset="0.65" stop-color="#99A4B0"/>
<stop offset="0.87" stop-color="#525164"/>
<stop offset="1" stop-color="#525164"/>
</radialGradient>
<linearGradient id="paint5_linear_1206_294924" x1="370.73" y1="27.7697" x2="370.73" y2="21.738" gradientUnits="userSpaceOnUse">
<stop offset="0.14" stop-color="#525164"/>
<stop offset="0.15" stop-color="#060606"/>
<stop offset="0.18" stop-color="#323232"/>
<stop offset="0.21" stop-color="#5A5A5A"/>
<stop offset="0.25" stop-color="#7B7B7B"/>
<stop offset="0.28" stop-color="#959595"/>
<stop offset="0.32" stop-color="#AAAAAA"/>
<stop offset="0.37" stop-color="#B9B9B9"/>
<stop offset="0.42" stop-color="#C1C1C1"/>
<stop offset="0.5" stop-color="#C4C4C4"/>
<stop offset="0.62" stop-color="#C2C2C2"/>
<stop offset="0.67" stop-color="#BBBBBB"/>
<stop offset="0.7" stop-color="#B0B0B0"/>
<stop offset="0.72" stop-color="#9F9F9F"/>
<stop offset="0.74" stop-color="#898989"/>
<stop offset="0.76" stop-color="#6D6D6D"/>
<stop offset="0.78" stop-color="#4D4D4D"/>
<stop offset="0.8" stop-color="#292929"/>
<stop offset="0.81"/>
</linearGradient>
<linearGradient id="paint6_linear_1206_294924" x1="367.622" y1="24.741" x2="373.744" y2="24.741" gradientUnits="userSpaceOnUse">
<stop stop-color="#525164"/>
<stop offset="0.5" stop-color="#E6E6E6"/>
<stop offset="0.68" stop-color="#898989"/>
<stop offset="0.83" stop-color="#3F3F3F"/>
<stop offset="0.94" stop-color="#121212"/>
<stop offset="1"/>
</linearGradient>
<radialGradient id="paint7_radial_1206_294924" cx="0" cy="0" r="1" gradientUnits="userSpaceOnUse" gradientTransform="translate(369.666 182.457) scale(5.23438 5.23341)">
<stop stop-color="#E7EEF6"/>
<stop offset="0.39" stop-color="#BDC7D2"/>
<stop offset="0.65" stop-color="#99A4B0"/>
<stop offset="0.87" stop-color="#525164"/>
<stop offset="1" stop-color="#525164"/>
</radialGradient>
<linearGradient id="paint8_linear_1206_294924" x1="370.73" y1="185.916" x2="370.73" y2="179.796" gradientUnits="userSpaceOnUse">
<stop offset="0.14" stop-color="#525164"/>
<stop offset="0.15" stop-color="#060606"/>
<stop offset="0.18" stop-color="#323232"/>
<stop offset="0.21" stop-color="#5A5A5A"/>
<stop offset="0.25" stop-color="#7B7B7B"/>
<stop offset="0.28" stop-color="#959595"/>
<stop offset="0.32" stop-color="#AAAAAA"/>
<stop offset="0.37" stop-color="#B9B9B9"/>
<stop offset="0.42" stop-color="#C1C1C1"/>
<stop offset="0.5" stop-color="#C4C4C4"/>
<stop offset="0.62" stop-color="#C2C2C2"/>
<stop offset="0.67" stop-color="#BBBBBB"/>
<stop offset="0.7" stop-color="#B0B0B0"/>
<stop offset="0.72" stop-color="#9F9F9F"/>
<stop offset="0.74" stop-color="#898989"/>
<stop offset="0.76" stop-color="#6D6D6D"/>
<stop offset="0.78" stop-color="#4D4D4D"/>
<stop offset="0.8" stop-color="#292929"/>
<stop offset="0.81"/>
</linearGradient>
<linearGradient id="paint9_linear_1206_294924" x1="367.622" y1="182.907" x2="373.744" y2="182.907" gradientUnits="userSpaceOnUse">
<stop stop-color="#525164"/>
<stop offset="0.5" stop-color="#E6E6E6"/>
<stop offset="0.68" stop-color="#898989"/>
<stop offset="0.83" stop-color="#3F3F3F"/>
<stop offset="0.94" stop-color="#121212"/>
<stop offset="1"/>
</linearGradient>
</defs>
</svg>
