<svg xmlns="http://www.w3.org/2000/svg" width="60" height="61" fill="none"><g clip-path="url(#a)"><path fill="#0F9D58" d="M27.143 33.318 51.259 6.365A4.25 4.25 0 0 0 50 6.175H4.286A4.298 4.298 0 0 0 0 10.461v45.714c0 .438.067.86.19 1.259l26.953-24.116Z"/><path fill="#4285F4" d="M27.143 33.318 3.027 60.27c.399.123.821.19 1.259.19H50c.438 0 .86-.067 1.259-.19L27.143 33.318Z"/><path fill="#D2D2D2" d="m27.143 33.318 26.953 24.116a4.25 4.25 0 0 0 .19-1.26V10.462c0-.438-.067-.86-.19-1.26L27.143 33.319Z"/><path fill="#F1F1F1" d="M54.286 56.175 28.57 30.461l-5 4.285 25.715 25.715H50a4.298 4.298 0 0 0 4.286-4.286Z"/><path fill="#FFDE48" d="m50 6.175-50 50a4.298 4.298 0 0 0 4.286 4.286H5l49.286-49.286v-.714A4.298 4.298 0 0 0 50 6.175Z"/><path fill="#fff" fill-opacity=".2" d="M50 6.175H4.286A4.298 4.298 0 0 0 0 10.461v.357a4.298 4.298 0 0 1 4.286-4.286H50a4.298 4.298 0 0 1 4.286 4.286v-.357A4.298 4.298 0 0 0 50 6.175Z"/><path fill="#263238" fill-opacity=".1" d="M50 60.104H4.286A4.298 4.298 0 0 1 0 55.818v.357a4.298 4.298 0 0 0 4.286 4.286H50a4.298 4.298 0 0 0 4.286-4.286v-.357A4.298 4.298 0 0 1 50 60.104Z"/><path fill="#EEE" d="M12.143 16.89v3.042h4.228c-.335 1.807-1.921 3.122-4.228 3.122-2.565 0-4.65-2.172-4.65-4.729s2.085-4.729 4.65-4.729c1.157 0 2.185.4 3.007 1.172l2.25-2.25c-1.364-1.279-3.136-2.057-5.257-2.057a7.853 7.853 0 0 0-7.857 7.857 7.853 7.853 0 0 0 7.857 7.857c4.535 0 7.543-3.193 7.543-7.679 0-.557-.05-1.092-.143-1.607h-7.4Z"/><mask id="b" width="60" height="61" x="0" y="0" maskUnits="userSpaceOnUse" style="mask-type:luminance"><path fill="#fff" d="M45.714.46a14.262 14.262 0 0 0-11.428 5.715h-30A4.298 4.298 0 0 0 0 10.461v45.714a4.298 4.298 0 0 0 4.286 4.286H50a4.298 4.298 0 0 0 4.286-4.286V28.196c3-4.385 5.714-8.335 5.714-13.45C60 6.854 53.607.461 45.714.461Z"/></mask><g filter="url(#c)" mask="url(#b)" opacity=".25"><path fill="#DB4437" d="M45.714.46C37.821.46 31.43 6.855 31.43 14.747c0 10.765 12.02 16.372 13.442 31.736a.846.846 0 0 0 1.686 0C47.978 31.118 60 25.511 60 14.746 60 6.854 53.607.461 45.714.461Z"/></g><path fill="#DB4437" d="M45.714.46C37.821.46 31.43 6.855 31.43 14.747c0 10.765 12.02 16.372 13.442 31.736a.846.846 0 0 0 1.686 0C47.978 31.118 60 25.511 60 14.746 60 6.854 53.607.461 45.714.461Z"/><path fill="#7B231E" d="M45.714 19.746a5 5 0 1 0 0-10 5 5 0 0 0 0 10Z"/><path fill="#fff" fill-opacity=".2" d="M45.714.818c7.822 0 14.172 6.286 14.279 14.078 0-.05.007-.1.007-.15C60 6.854 53.607.461 45.714.461S31.43 6.854 31.43 14.746c0 .05.007.1.007.15C31.543 7.104 37.893.818 45.714.818Z"/><path fill="#3E2723" fill-opacity=".2" d="M46.557 46.125a.846.846 0 0 1-.843.764.846.846 0 0 1-.843-.764C43.464 30.832 31.55 25.204 31.436 14.539c0 .072-.008.136-.008.207 0 10.765 12.022 16.372 13.443 31.736a.846.846 0 0 0 1.686 0C47.978 31.118 60 25.511 60 14.746c0-.071-.007-.135-.007-.207-.114 10.665-12.022 16.3-13.436 31.586Z"/><path fill="url(#d)" d="M45.714.46a14.262 14.262 0 0 0-11.428 5.715h-30A4.298 4.298 0 0 0 0 10.461v45.714a4.298 4.298 0 0 0 4.286 4.286H50a4.298 4.298 0 0 0 4.286-4.286V28.196c3-4.385 5.714-8.335 5.714-13.45C60 6.854 53.607.461 45.714.461Z"/></g><defs><radialGradient id="d" cx="0" cy="0" r="1" gradientTransform="translate(1.49 7.358) scale(73.1757)" gradientUnits="userSpaceOnUse"><stop stop-color="#fff" stop-opacity=".1"/><stop offset="1" stop-color="#fff" stop-opacity="0"/></radialGradient><clipPath id="a"><path fill="#fff" d="M0 .46h60v60H0z"/></clipPath><filter id="c" width="2428.57" height="2446.79" x="-1168.57" y="-1199.54" color-interpolation-filters="sRGB" filterUnits="userSpaceOnUse"><feFlood flood-opacity="0" result="BackgroundImageFix"/><feBlend in="SourceGraphic" in2="BackgroundImageFix" result="shape"/><feGaussianBlur result="effect1_foregroundBlur_114_29" stdDeviation="600"/></filter></defs></svg>