<svg width="480" height="94" viewBox="0 0 480 94" fill="none" xmlns="http://www.w3.org/2000/svg">
<path d="M36.8306 92.1778L9.32184 14.5488H4.80868L0.397949 1.81284H20.2132L46.4129 78.9566H43.3806L69.459 1.81284H89.2742L84.8635 14.5488H80.3425L52.8416 92.1778H36.8306Z" fill="#0047BA"/>
<path d="M97.6993 92.1778V46.9953V1.81284H159.461L155.05 14.5488H112.012V40.506H142.7V53.242H112.012V79.4418H155.05L159.461 92.1778H97.6993Z" fill="#0047BA"/>
<path d="M170.547 92.1778V1.81284H184.86V50.8161L181.1 49.3606L221.977 1.81284H239.807V14.4386H229.026L203.661 44.1449L204.389 33.9561L241.263 92.1778H224.402L197.96 50.8161L184.86 66.0993V92.1778H170.547Z" fill="#0047BA"/>
<path d="M266.832 92.1778V14.4386H238.578V1.81284H304.677L300.266 14.4386H281.024V92.1778H266.832Z" fill="#0047BA"/>
<path d="M352.307 93.6333C345.757 93.6333 339.652 92.4608 333.991 90.1157C328.412 87.7707 323.479 84.4957 319.193 80.2908C314.988 76.0859 311.673 71.1533 309.247 65.4928C306.902 59.8324 305.729 53.6463 305.729 46.9346C305.729 40.223 306.902 34.0369 309.247 28.3765C311.673 22.6352 314.988 17.7025 319.193 13.5785C323.398 9.37357 328.331 6.13903 333.991 3.87486C339.652 1.52982 345.757 0.3573 352.307 0.3573C358.938 0.3573 365.043 1.52982 370.622 3.87486C376.283 6.13903 381.215 9.37357 385.42 13.5785C389.706 17.7834 393.022 22.716 395.367 28.3765C397.712 34.0369 398.884 40.223 398.884 46.9346C398.884 53.6463 397.671 59.8324 395.245 65.4928C392.9 71.1533 389.625 76.0859 385.42 80.2908C381.215 84.4957 376.283 87.7707 370.622 90.1157C364.962 92.4608 358.857 93.6333 352.307 93.6333ZM352.307 80.5334C356.997 80.5334 361.283 79.6843 365.164 77.9862C369.126 76.2881 372.563 73.943 375.474 70.9511C378.385 67.8783 380.649 64.3203 382.267 60.2771C383.884 56.1531 384.693 51.7056 384.693 46.9346C384.693 42.1637 383.884 37.7566 382.267 33.7135C380.649 29.6703 378.385 26.1123 375.474 23.0395C372.563 19.9667 369.126 17.5812 365.164 15.8831C361.283 14.1849 356.997 13.3359 352.307 13.3359C347.617 13.3359 343.291 14.1849 339.328 15.8831C335.447 17.5812 332.051 19.9667 329.139 23.0395C326.228 26.1123 323.964 29.6703 322.347 33.7135C320.81 37.7566 320.042 42.1637 320.042 46.9346C320.042 51.7056 320.81 56.1531 322.347 60.2771C323.964 64.3203 326.228 67.8783 329.139 70.9511C332.051 73.943 335.487 76.2881 339.45 77.9862C343.412 79.6843 347.698 80.5334 352.307 80.5334Z" fill="#0047BA"/>
<path d="M412.681 92.1778V14.5488H408.27L403.86 1.81284H445.552C451.617 1.81284 456.954 2.94493 461.563 5.20911C466.172 7.39242 469.771 10.627 472.358 14.9127C475.027 19.1176 476.361 24.1716 476.361 30.0746C476.361 36.3011 474.784 41.6381 471.631 46.0856C468.558 50.5331 464.393 53.7676 459.137 55.7892L480 92.1778H463.746L441.549 52.7568L450.889 58.2151H426.994V92.1778H412.681ZM426.994 45.4791H445.795C449.11 45.4791 451.981 44.8322 454.407 43.5384C456.833 42.2446 458.693 40.4656 459.986 38.2014C461.361 35.8564 462.048 33.107 462.048 29.9533C462.048 26.7996 461.361 24.0907 459.986 21.8265C458.693 19.4815 456.833 17.7025 454.407 16.4896C451.981 15.1957 449.11 14.5488 445.795 14.5488H426.994V45.4791Z" fill="#0047BA"/>
</svg>
