<svg width="16" height="16" viewBox="0 0 24 24" fill="none" xmlns="http://www.w3.org/2000/svg">
<path d="M22 12C22 15.0134 20.6672 17.7154 18.5588 19.5488C16.8031 21.0756 14.5095 22 12 22C9.49052 22 7.19694 21.0756 5.44117 19.5488C3.33285 17.7154 2 15.0134 2 12C2 6.47715 6.47715 2 12 2C17.5228 2 22 6.47715 22 12Z" fill="#C6FFEC"/>
<path fill-rule="evenodd" clip-rule="evenodd" d="M6 20.0007V17.8889C6 16.7222 7.2075 15.7422 9 15.1978C9 16.0163 9.20701 17.916 10.612 20.0441L10.6503 20.0416L11.25 16.3333L10.545 14.8711C11.01 14.8167 11.4975 14.7778 12 14.7778C12.5025 14.7778 12.99 14.8167 13.455 14.8711L12.75 16.3333L13.3497 20.0416L13.388 20.0441C14.793 17.916 15 16.0163 15 15.1978C16.8 15.7422 18 16.7222 18 17.8889V20.0007C16.3287 21.2561 14.2512 22 12 22C9.74879 22 7.67132 21.2561 6 20.0007ZM15 10.1111C15 8.39222 13.6575 7 12 7C10.3425 7 9 8.39222 9 10.1111C9 11.83 10.3425 13.2222 12 13.2222C13.6575 13.2222 15 11.83 15 10.1111Z" fill="#12B7AD"/>
</svg>
