<svg width="16" height="16" viewBox="0 0 24 24" fill="none" xmlns="http://www.w3.org/2000/svg">
<path d="M18 2H6C3.79086 2 2 3.79086 2 6V18C2 19.8642 3.27532 21.4306 5.00111 21.8743C5.32039 21.9563 5.6551 22 6 22H18C18.3449 22 18.6796 21.9563 18.9989 21.8743C20.7247 21.4306 22 19.8642 22 18V6C22 3.79086 20.2091 2 18 2Z" fill="#DCC6FF"/>
<g clip-path="url(#clip0_456_29014)">
<path fill-rule="evenodd" clip-rule="evenodd" d="M9 16.3958C7.2 16.922 6 17.8991 6 19.0266V22.0333H9V16.3958ZM10 16.2015V22.0333H13.9901V16.2015C12.5386 15.9584 11.4398 15.9582 10 16.2015ZM15 22.0333V16.3958C16.8 16.922 18 17.8991 18 19.0266V22.0333H15ZM11.5 17.5H12.5V18.5H11.5V17.5ZM11.5 19.5H12.5V20.5H11.5V19.5Z" fill="#7622FF"/>
<path fill-rule="evenodd" clip-rule="evenodd" d="M8.59804 9.87296H15.4164C15.4404 9.81183 15.4664 9.73933 15.492 9.65682L15.496 9.64379C15.586 9.35548 15.6667 9.09657 15.6667 8.56907C15.6667 8.30147 15.4934 8.07631 15.2637 7.89791C15.031 7.71751 14.7134 7.56317 14.3597 7.43722C13.651 7.185 12.7574 7.03333 12 7.03333C11.2427 7.03333 10.349 7.185 9.64037 7.43722C9.28671 7.56317 8.96904 7.71751 8.73637 7.89791C8.50671 8.07631 8.33337 8.30147 8.33337 8.56907C8.33337 9.05882 8.41504 9.31673 8.49904 9.58232C8.50704 9.60704 8.51471 9.63176 8.52271 9.65648C8.54837 9.73933 8.57404 9.81149 8.59804 9.87296ZM10.6667 8.87074C10.6667 8.68633 10.816 8.53666 11 8.53666H13C13.184 8.53666 13.3334 8.68633 13.3334 8.87074C13.3334 9.05515 13.184 9.20481 13 9.20481H11C10.816 9.20481 10.6667 9.05515 10.6667 8.87074Z" fill="#7622FF"/>
<path fill-rule="evenodd" clip-rule="evenodd" d="M8.34103 10.6784C8.3579 10.5989 8.43783 10.5411 8.53097 10.5411H15.469C15.5625 10.5411 15.6421 10.5989 15.659 10.6784L15.6597 10.6824L15.6608 10.6884C15.6615 10.6931 15.6623 10.6991 15.6634 10.7065C15.6648 10.7208 15.6663 10.7406 15.6667 10.7643C15.667 10.8117 15.6623 10.8769 15.6425 10.9534C15.6025 11.1084 15.5028 11.3051 15.2747 11.4962C14.8222 11.8757 13.8924 12.2115 12 12.2115C10.1076 12.2115 9.17776 11.8757 8.7253 11.4962C8.49723 11.3051 8.3975 11.1084 8.35753 10.9534C8.33773 10.8769 8.33297 10.8117 8.33333 10.7643C8.3337 10.7406 8.33517 10.7208 8.33663 10.7065C8.33773 10.6991 8.33847 10.6931 8.3392 10.6884L8.3403 10.6824L8.34103 10.6784Z" fill="#7622FF"/>
<path fill-rule="evenodd" clip-rule="evenodd" d="M9.0127 12.1112C9.01603 12.1145 9.0197 12.1179 9.02303 12.1209C9.43436 12.5004 10.2797 12.7125 12 12.7125C13.7204 12.7125 14.5657 12.5004 14.977 12.1209C14.9804 12.1179 14.984 12.1145 14.9874 12.1112C14.8477 13.6419 13.5637 14.5065 12 14.5065C10.4364 14.5065 9.15236 13.6419 9.0127 12.1112Z" fill="#7622FF"/>
</g>
<defs>
<clipPath id="clip0_456_29014">
<rect width="12" height="15" fill="white" transform="translate(6 7)"/>
</clipPath>
</defs>
</svg>
