<svg width="16" height="16" viewBox="0 0 24 24" fill="none" xmlns="http://www.w3.org/2000/svg">
<path d="M9.92154 2.57125C11.2077 1.80958 12.7923 1.80958 14.0785 2.57125L18.9215 5.43932C20.2077 6.20099 21 7.6086 21 9.13192V14.8681C21 16.3914 20.2077 17.799 18.9215 18.5607L14.0785 21.4288C12.7923 22.1904 11.2077 22.1904 9.92154 21.4288L5.07846 18.5607C3.7923 17.799 3 16.3914 3 14.8681V9.13192C3 7.6086 3.7923 6.20099 5.07846 5.43932L9.92154 2.57125Z" fill="#FFDBC6"/>
<path fill-rule="evenodd" clip-rule="evenodd" d="M11.9966 22C11.2801 21.9994 10.5636 21.809 9.92154 21.4288L7 19.6986V19.6048C7 18.0701 9.25 16.8144 12 16.8144C14.75 16.8144 17 18.0701 17 19.6048V19.6986L14.0785 21.4288C13.4344 21.8102 12.7154 22.0006 11.9966 22ZM14.5 12.6288V11.9312H9.5V12.6288C9.5 14.1635 10.625 15.4192 12 15.4192C13.375 15.4192 14.5 14.1635 14.5 12.6288ZM15.75 9.14077C15.75 8.7222 16 8.44316 16.375 8.44316C16.75 8.44316 17 8.79197 17 9.14077V9.83837C17 10.6057 16.4375 11.2336 15.75 11.2336H8.25C7.5625 11.2336 7 10.6057 7 9.83837V9.14077C7 8.7222 7.25 8.44316 7.625 8.44316C8 8.44316 8.25 8.7222 8.25 9.14077V9.83837H9.1875L10.0625 7.74556C10.125 7.60604 10.1875 7.46652 10.3125 7.327C10.625 6.9782 11.125 6.90844 11.5625 7.11772L12 7.327L12.4375 7.18748C12.875 6.9782 13.375 7.04796 13.6875 7.39676C13.8125 7.46652 13.875 7.60604 13.9375 7.74556L14.8125 9.83837H15.75V9.14077Z" fill="#FF6B00"/>
</svg>
