<svg width="49" height="32" viewBox="0 0 49 32" fill="none" xmlns="http://www.w3.org/2000/svg">
<path d="M27.9938 27.0276L25.8594 23.3308C25.1005 22.0163 23.2034 22.0163 22.4445 23.3308L20.3101 27.0275C19.5513 28.342 20.4998 29.985 22.0176 29.985H26.2863C27.804 29.985 28.7526 28.342 27.9938 27.0276Z" fill="#00E3E3" stroke="white" stroke-width="1.31441"/>
<path d="M0 2.62883C0 1.17696 1.17697 0 2.62883 0H45.6759C47.1277 0 48.3047 1.17697 48.3047 2.62883V18.4018C48.3047 19.8537 47.1277 21.0306 45.6759 21.0306H2.62883C1.17697 21.0306 0 19.8537 0 18.4018V2.62883Z" fill="white"/>
<path d="M2.62883 0.492905H45.6759C46.8555 0.492905 47.8118 1.44919 47.8118 2.62883V18.4018C47.8118 19.5814 46.8555 20.5377 45.6759 20.5377H2.62883C1.44919 20.5377 0.492905 19.5814 0.492905 18.4018V2.62882C0.492905 1.44919 1.44919 0.492905 2.62883 0.492905Z" stroke="#00D4D4" stroke-opacity="0.25" stroke-width="0.98581"/>
<rect x="0.821509" y="0.821509" width="19.3876" height="19.3876" rx="1.80732" fill="#00BA0B" stroke="#027F09" stroke-width="1.64302"/>
</svg>
