<svg width="16" height="16" viewBox="0 0 24 24" fill="none" xmlns="http://www.w3.org/2000/svg">
<path d="M22 12C22 15.0134 20.6672 17.7154 18.5588 19.5488C16.8031 21.0756 14.5095 22 12 22C9.49052 22 7.19694 21.0756 5.44117 19.5488C3.33285 17.7154 2 15.0134 2 12C2 6.47715 6.47715 2 12 2C17.5228 2 22 6.47715 22 12Z" fill="#C6FFEC"/>
<mask id="mask0_456_29037" style="mask-type:alpha" maskUnits="userSpaceOnUse" x="2" y="2" width="20" height="20">
<path d="M22 12C22 15.0134 20.6672 17.7154 18.5588 19.5488C16.8031 21.0756 14.5095 22 12 22C9.49052 22 7.19694 21.0756 5.44117 19.5488C3.33285 17.7154 2 15.0134 2 12C2 6.47715 6.47715 2 12 2C17.5228 2 22 6.47715 22 12Z" fill="#C6FFEC"/>
</mask>
<g mask="url(#mask0_456_29037)">
<path d="M17.3485 13.3941L16.5 14.2426L15.6515 13.3941L16.2879 12.7577L15.6515 12.1213L16.2879 11.4849L15.6515 10.8485V9.88969C15.4987 9.80908 15.3566 9.70513 15.2272 9.57573C14.8896 9.23817 14.7 8.78033 14.7 8.30294C14.7 7.82555 14.8896 7.36771 15.2272 7.03015C15.5648 6.69258 16.0226 6.50294 16.5 6.50294C16.9774 6.50294 17.4352 6.69258 17.7728 7.03015C18.1104 7.36771 18.3 7.82555 18.3 8.30294C18.3 8.78033 18.1104 9.23817 17.7728 9.57573C17.6434 9.70513 17.5013 9.80908 17.3485 9.88969V13.3941ZM16.9243 7.45441C16.8117 7.34189 16.6591 7.27868 16.5 7.27868C16.3409 7.27868 16.1883 7.34189 16.0757 7.45441C15.9632 7.56693 15.9 7.71955 15.9 7.87868C15.9 8.0378 15.9632 8.19042 16.0757 8.30294C16.1883 8.41546 16.3409 8.47867 16.5 8.47867C16.6591 8.47867 16.8117 8.41546 16.9243 8.30294C17.0368 8.19042 17.1 8.0378 17.1 7.87868C17.1 7.71955 17.0368 7.56693 16.9243 7.45441V7.45441Z" fill="#12B7AD"/>
<path d="M9.19391 9.70227L9.19435 10.8526C9.19443 11.0569 9.27923 11.2529 9.43009 11.3974C9.58095 11.5418 9.78552 11.623 9.99878 11.623H12.0477L11.0278 9.30652H9.59582C9.54208 9.3065 9.48889 9.3168 9.43938 9.33682C9.38988 9.35683 9.34506 9.38615 9.30759 9.42305C9.27013 9.45994 9.24076 9.50366 9.22123 9.55162C9.20171 9.59958 9.19242 9.65081 9.19391 9.70227Z" fill="#12B7AD"/>
<path d="M13.8441 13.7595L12.4391 12.4139C12.4373 12.4017 12.4373 12.3892 12.4391 12.377C12.4391 12.377 10.4242 12.377 9.99917 12.377C9.57409 12.377 9.16636 12.2152 8.86568 11.9272C8.56499 11.6393 8.39598 11.2487 8.39582 10.8415L8.39538 9.70169C8.39312 9.54954 8.42254 9.39851 8.48191 9.2574C8.54128 9.1163 8.62941 8.98796 8.74115 8.87988C8.8529 8.77179 8.98602 8.68614 9.13273 8.62792C9.27944 8.56971 9.4368 8.54009 9.59561 8.54081H10.6972L10.1459 7.32188C10.1037 7.2265 10.0332 7.14513 9.94303 7.08789C9.8529 7.03065 9.74719 7.00008 9.63908 7H6.26283C6.19024 7.00135 6.12102 7.02958 6.0697 7.07877C6.01837 7.12796 5.98893 7.19429 5.98755 7.26384L5.99027 14.2713C5.99029 14.3413 5.96131 14.4084 5.90968 14.4579C5.85805 14.5074 5.78802 14.5352 5.71498 14.5352H-1.72047C-1.79351 14.5352 -1.86354 14.563 -1.91517 14.6124C-1.96679 14.6619 -1.99578 14.729 -1.99575 14.799L-1.99471 17.4901C-1.99468 17.5601 -1.96564 17.6272 -1.91398 17.6767C-1.86231 17.7262 -1.79226 17.754 -1.71922 17.754H-1.16845C-1.18302 17.4859 -1.14049 17.2178 -1.04346 16.9659C-0.946434 16.7141 -0.79693 16.4839 -0.604048 16.2892C-0.411167 16.0946 -0.178942 15.9395 0.0784914 15.8336C0.335925 15.7277 0.613184 15.6731 0.893395 15.6731C1.17361 15.6731 1.45091 15.7277 1.70842 15.8336C1.96594 15.9395 2.19828 16.0946 2.39132 16.2892C2.58435 16.4839 2.73403 16.7141 2.83126 16.9659C2.92848 17.2178 2.97121 17.4859 2.95685 17.754H3.23775C3.23754 17.2306 3.45437 16.7286 3.84054 16.3585C4.2267 15.9884 4.75056 15.7805 5.29688 15.7805C5.8432 15.7805 6.36722 15.9884 6.75367 16.3585C7.14012 16.7286 7.35733 17.2306 7.35754 17.754H8.74549C8.74529 17.2306 8.96212 16.7286 9.34828 16.3585C9.73444 15.9884 10.2583 15.7805 10.8046 15.7805C11.3509 15.7805 11.875 15.9884 12.2614 16.3585C12.6479 16.7286 12.8651 17.2306 12.8653 17.754H13.4546C13.6007 17.754 13.7408 17.6984 13.844 17.5994C13.9473 17.5005 14.0052 17.3663 14.0052 17.2263L14.004 14.1341C14.0044 14.0647 13.9905 13.9959 13.963 13.9316C13.9356 13.8673 13.8952 13.8088 13.8441 13.7595Z" fill="#12B7AD"/>
<path d="M0.837605 16.5088C0.667168 16.5088 0.498422 16.5411 0.341052 16.6037C0.183682 16.6664 0.0407878 16.7582 -0.0794282 16.8739C-0.199644 16.9896 -0.294815 17.1269 -0.359477 17.278C-0.424139 17.429 -0.45702 17.5908 -0.456231 17.7541V17.7541C-0.434633 18.0697 -0.288523 18.3656 -0.047552 18.5819C0.193419 18.7981 0.511197 18.9184 0.841293 18.9184C1.17139 18.9184 1.48907 18.7981 1.72988 18.5819C1.97068 18.3656 2.11656 18.0697 2.13792 17.7541V17.7541C2.13785 17.5906 2.10417 17.4287 2.03879 17.2776C1.97341 17.1265 1.87761 16.9892 1.75686 16.8736C1.63612 16.7579 1.49279 16.6662 1.33506 16.6036C1.17734 16.541 1.0083 16.5088 0.837605 16.5088V16.5088ZM1.50452 17.7541C1.48949 17.9128 1.41309 18.0603 1.29034 18.1677C1.16758 18.2751 1.00734 18.3346 0.841067 18.3346C0.674794 18.3346 0.514504 18.2751 0.391667 18.1677C0.268831 18.0603 0.192321 17.9128 0.177159 17.7541V17.7541C0.168713 17.6658 0.179586 17.5767 0.209083 17.4926C0.238581 17.4085 0.286055 17.3312 0.348477 17.2657C0.4109 17.2001 0.486899 17.1478 0.571628 17.112C0.656356 17.0762 0.747952 17.0577 0.840572 17.0577C0.933192 17.0577 1.0248 17.0762 1.10956 17.112C1.19431 17.1478 1.27035 17.2001 1.33283 17.2657C1.3953 17.3312 1.44283 17.4085 1.4724 17.4926C1.50196 17.5767 1.5129 17.6658 1.50452 17.7541Z" fill="#12B7AD"/>
<path d="M5.29873 16.5094C4.95399 16.5094 4.62343 16.6406 4.37975 16.8741C4.13608 17.1077 3.99926 17.4244 3.99938 17.7547V17.7547C3.99951 18.085 4.13658 18.4017 4.38044 18.6353C4.62429 18.8688 4.95496 19 5.29969 19C5.64443 19 5.975 18.8688 6.21867 18.6353C6.46234 18.4017 6.59917 18.085 6.59904 17.7547C6.59898 17.5912 6.56529 17.4292 6.49991 17.2781C6.43453 17.1271 6.33873 16.9898 6.21799 16.8741C6.09724 16.7585 5.95391 16.6668 5.79619 16.6042C5.63846 16.5416 5.46942 16.5094 5.29873 16.5094V16.5094ZM5.99319 17.7547C5.99325 17.924 5.9231 18.0864 5.79817 18.2062C5.67323 18.3259 5.50375 18.3932 5.327 18.3932C5.15025 18.3932 4.98071 18.3259 4.85568 18.2062C4.73066 18.0864 4.66038 17.924 4.66031 17.7547C4.66025 17.5854 4.7304 17.423 4.85533 17.3032C4.98027 17.1835 5.14975 17.1162 5.3265 17.1162C5.50325 17.1162 5.67279 17.1835 5.79782 17.3032C5.92284 17.423 5.99312 17.5854 5.99319 17.7547V17.7547Z" fill="#12B7AD"/>
<path d="M10.8051 16.5084C10.4604 16.5084 10.1298 16.6396 9.88616 16.8731C9.64249 17.1067 9.50566 17.4234 9.50579 17.7537V17.7537C9.50592 18.084 9.64299 18.4007 9.88685 18.6343C10.1307 18.8678 10.4614 18.999 10.8061 18.999C11.1508 18.999 11.4814 18.8678 11.7251 18.6343C11.9688 18.4007 12.1056 18.084 12.1054 17.7537V17.7537C12.1053 17.4234 11.9683 17.1067 11.7244 16.8731C11.4805 16.6396 11.1499 16.5084 10.8051 16.5084V16.5084ZM11.4996 17.7537C11.4997 17.923 11.4295 18.0854 11.3046 18.2052C11.1796 18.3249 11.0102 18.3922 10.8334 18.3922C10.6567 18.3922 10.4871 18.3249 10.3621 18.2052C10.2371 18.0854 10.1668 17.923 10.1667 17.7537V17.7537C10.1667 17.5844 10.2368 17.422 10.3617 17.3022C10.4867 17.1825 10.6562 17.1152 10.8329 17.1152C11.0097 17.1152 11.1792 17.1825 11.3042 17.3022C11.4293 17.422 11.4995 17.5844 11.4996 17.7537V17.7537Z" fill="#12B7AD"/>
</g>
</svg>
