<svg width="16" height="16" viewBox="0 0 24 24" fill="none" xmlns="http://www.w3.org/2000/svg">
<path d="M18 2H6C3.79086 2 2 3.79086 2 6V18C2 19.8642 3.27532 21.4306 5.00111 21.8743C5.32039 21.9563 5.6551 22 6 22H18C18.3449 22 18.6796 21.9563 18.9989 21.8743C20.7247 21.4306 22 19.8642 22 18V6C22 3.79086 20.2091 2 18 2Z" fill="#DCC6FF"/>
<mask id="mask0_456_29034" style="mask-type:alpha" maskUnits="userSpaceOnUse" x="2" y="2" width="20" height="20">
<path d="M18 2H6C3.79086 2 2 3.79086 2 6V18C2 19.8642 3.27532 21.4306 5.00111 21.8743C5.32039 21.9563 5.6551 22 6 22H18C18.3449 22 18.6796 21.9563 18.9989 21.8743C20.7247 21.4306 22 19.8642 22 18V6C22 3.79086 20.2091 2 18 2Z" fill="#DCC6FF"/>
</mask>
<g mask="url(#mask0_456_29034)">
<path d="M8.19391 9.70227L8.19435 10.8526C8.19443 11.0569 8.27923 11.2529 8.43009 11.3974C8.58095 11.5418 8.78552 11.623 8.99878 11.623H11.0477L10.0278 9.30652H8.59582C8.54208 9.3065 8.48889 9.3168 8.43938 9.33682C8.38988 9.35683 8.34506 9.38615 8.30759 9.42305C8.27013 9.45994 8.24076 9.50366 8.22123 9.55162C8.20171 9.59958 8.19242 9.65081 8.19391 9.70227Z" fill="#7622FF"/>
<path d="M12.8441 13.7595L11.4391 12.4139C11.4373 12.4017 11.4373 12.3892 11.4391 12.377C11.4391 12.377 9.42425 12.377 8.99917 12.377C8.57409 12.377 8.16636 12.2152 7.86568 11.9272C7.56499 11.6393 7.39598 11.2487 7.39582 10.8415L7.39538 9.70169C7.39312 9.54954 7.42254 9.39851 7.48191 9.2574C7.54128 9.1163 7.62941 8.98796 7.74115 8.87988C7.8529 8.77179 7.98602 8.68614 8.13273 8.62792C8.27944 8.56971 8.4368 8.54009 8.59561 8.54081H9.69716L9.14592 7.32188C9.10372 7.2265 9.03315 7.14513 8.94303 7.08789C8.8529 7.03065 8.74719 7.00008 8.63908 7H5.26283C5.19024 7.00135 5.12102 7.02958 5.0697 7.07877C5.01837 7.12796 4.98893 7.19429 4.98755 7.26384L4.99027 14.2713C4.99029 14.3413 4.96131 14.4084 4.90968 14.4579C4.85805 14.5074 4.78802 14.5352 4.71498 14.5352H-2.72047C-2.79351 14.5352 -2.86354 14.563 -2.91517 14.6124C-2.96679 14.6619 -2.99578 14.729 -2.99575 14.799L-2.99471 17.4901C-2.99468 17.5601 -2.96564 17.6272 -2.91398 17.6767C-2.86231 17.7262 -2.79226 17.754 -2.71922 17.754H-2.16845C-2.18302 17.4859 -2.14049 17.2178 -2.04346 16.9659C-1.94643 16.7141 -1.79693 16.4839 -1.60405 16.2892C-1.41117 16.0946 -1.17894 15.9395 -0.921509 15.8336C-0.664075 15.7277 -0.386816 15.6731 -0.106605 15.6731C0.173606 15.6731 0.450908 15.7277 0.708424 15.8336C0.96594 15.9395 1.19828 16.0946 1.39132 16.2892C1.58435 16.4839 1.73403 16.7141 1.83126 16.9659C1.92848 17.2178 1.97121 17.4859 1.95685 17.754H2.23775C2.23754 17.2306 2.45437 16.7286 2.84054 16.3585C3.2267 15.9884 3.75056 15.7805 4.29688 15.7805C4.8432 15.7805 5.36722 15.9884 5.75367 16.3585C6.14012 16.7286 6.35733 17.2306 6.35754 17.754H7.74549C7.74529 17.2306 7.96212 16.7286 8.34828 16.3585C8.73444 15.9884 9.2583 15.7805 9.80462 15.7805C10.3509 15.7805 10.875 15.9884 11.2614 16.3585C11.6479 16.7286 11.8651 17.2306 11.8653 17.754H12.4546C12.6007 17.754 12.7408 17.6984 12.844 17.5994C12.9473 17.5005 13.0052 17.3663 13.0052 17.2263L13.004 14.1341C13.0044 14.0647 12.9905 13.9959 12.963 13.9316C12.9356 13.8673 12.8952 13.8088 12.8441 13.7595Z" fill="#7622FF"/>
<path d="M4.29873 16.5094C3.95399 16.5094 3.62343 16.6406 3.37975 16.8741C3.13608 17.1077 2.99926 17.4244 2.99938 17.7547V17.7547C2.99951 18.085 3.13658 18.4017 3.38044 18.6353C3.62429 18.8688 3.95496 19 4.29969 19C4.64443 19 4.975 18.8688 5.21867 18.6353C5.46234 18.4017 5.59917 18.085 5.59904 17.7547C5.59898 17.5912 5.56529 17.4292 5.49991 17.2781C5.43453 17.1271 5.33873 16.9898 5.21799 16.8741C5.09724 16.7585 4.95391 16.6668 4.79619 16.6042C4.63846 16.5416 4.46942 16.5094 4.29873 16.5094V16.5094ZM4.99319 17.7547C4.99325 17.924 4.9231 18.0864 4.79817 18.2062C4.67323 18.3259 4.50375 18.3932 4.327 18.3932C4.15025 18.3932 3.98071 18.3259 3.85568 18.2062C3.73066 18.0864 3.66038 17.924 3.66031 17.7547C3.66025 17.5854 3.7304 17.423 3.85533 17.3032C3.98027 17.1835 4.14975 17.1162 4.3265 17.1162C4.50325 17.1162 4.67279 17.1835 4.79782 17.3032C4.92284 17.423 4.99312 17.5854 4.99319 17.7547V17.7547Z" fill="#7622FF"/>
<path d="M9.80514 16.5084C9.4604 16.5084 9.12984 16.6396 8.88616 16.8731C8.64249 17.1067 8.50566 17.4234 8.50579 17.7537V17.7537C8.50592 18.084 8.64299 18.4007 8.88685 18.6343C9.1307 18.8678 9.46137 18.999 9.8061 18.999C10.1508 18.999 10.4814 18.8678 10.7251 18.6343C10.9688 18.4007 11.1056 18.084 11.1054 17.7537V17.7537C11.1053 17.4234 10.9683 17.1067 10.7244 16.8731C10.4805 16.6396 10.1499 16.5084 9.80514 16.5084V16.5084ZM10.4996 17.7537C10.4997 17.923 10.4295 18.0854 10.3046 18.2052C10.1796 18.3249 10.0102 18.3922 9.83341 18.3922C9.65666 18.3922 9.48712 18.3249 9.36209 18.2052C9.23706 18.0854 9.16679 17.923 9.16672 17.7537V17.7537C9.16666 17.5844 9.23681 17.422 9.36174 17.3022C9.48668 17.1825 9.65616 17.1152 9.83291 17.1152C10.0097 17.1152 10.1792 17.1825 10.3042 17.3022C10.4293 17.422 10.4995 17.5844 10.4996 17.7537V17.7537Z" fill="#7622FF"/>
<path d="M16.3056 10.2H16.5833C16.5833 10.362 16.7736 10.5 17 10.5C17.2264 10.5 17.4167 10.362 17.4167 10.2C17.4167 10.035 17.2722 9.975 16.9667 9.8955C16.6722 9.816 16.3056 9.717 16.3056 9.3C16.3056 9.0315 16.5097 8.8035 16.7917 8.727V8.4H17.2083V8.727C17.4903 8.8035 17.6944 9.0315 17.6944 9.3H17.4167C17.4167 9.138 17.2264 9 17 9C16.7736 9 16.5833 9.138 16.5833 9.3C16.5833 9.465 16.7278 9.525 17.0333 9.6045C17.3278 9.684 17.6944 9.783 17.6944 10.2C17.6944 10.4685 17.4903 10.6965 17.2083 10.773V11.1H16.7917V10.773C16.5097 10.6965 16.3056 10.4685 16.3056 10.2Z" fill="#7622FF"/>
<path d="M18.9444 11.4H15.0556V8.1H18.9444V11.4ZM18.1111 6V6.6H15.8889V6H15.3333V6.6H15.0556C14.7472 6.6 14.5 6.867 14.5 7.2V11.4C14.5 11.5591 14.5585 11.7117 14.6627 11.8243C14.7669 11.9368 14.9082 12 15.0556 12H18.9444C19.0918 12 19.2331 11.9368 19.3373 11.8243C19.4415 11.7117 19.5 11.5591 19.5 11.4V7.2C19.5 6.867 19.25 6.6 18.9444 6.6H18.6667V6" fill="#7622FF"/>
</g>
</svg>
