<svg width="16" height="16" viewBox="0 0 24 24" fill="none" xmlns="http://www.w3.org/2000/svg">
<path d="M9.92154 2.57125C11.2077 1.80958 12.7923 1.80958 14.0785 2.57125L18.9215 5.43932C20.2077 6.20099 21 7.6086 21 9.13192V14.8681C21 16.3914 20.2077 17.799 18.9215 18.5607L14.0785 21.4288C12.7923 22.1904 11.2077 22.1904 9.92154 21.4288L5.07846 18.5607C3.7923 17.799 3 16.3914 3 14.8681V9.13192C3 7.6086 3.7923 6.20099 5.07846 5.43932L9.92154 2.57125Z" fill="#FFDBC6"/>
<mask id="mask0_456_29031" style="mask-type:alpha" maskUnits="userSpaceOnUse" x="3" y="2" width="18" height="20">
<path d="M9.92154 2.57125C11.2077 1.80958 12.7923 1.80958 14.0785 2.57125L18.9215 5.43932C20.2077 6.20099 21 7.6086 21 9.13192V14.8681C21 16.3914 20.2077 17.799 18.9215 18.5607L14.0785 21.4288C12.7923 22.1904 11.2077 22.1904 9.92154 21.4288L5.07846 18.5607C3.7923 17.799 3 16.3914 3 14.8681V9.13192C3 7.6086 3.7923 6.20099 5.07846 5.43932L9.92154 2.57125Z" fill="#FFC6EC"/>
</mask>
<g mask="url(#mask0_456_29031)">
<path d="M9.19391 9.70227L9.19435 10.8526C9.19443 11.0569 9.27923 11.2529 9.43009 11.3974C9.58095 11.5418 9.78552 11.623 9.99878 11.623H12.0477L11.0278 9.30652H9.59582C9.54208 9.3065 9.48889 9.3168 9.43938 9.33682C9.38988 9.35683 9.34506 9.38615 9.30759 9.42305C9.27013 9.45994 9.24076 9.50366 9.22123 9.55162C9.20171 9.59958 9.19242 9.65081 9.19391 9.70227Z" fill="#FF6B00"/>
<path d="M13.8441 13.7595L12.4391 12.4139C12.4373 12.4017 12.4373 12.3892 12.4391 12.377C12.4391 12.377 10.4242 12.377 9.99917 12.377C9.57409 12.377 9.16636 12.2152 8.86568 11.9272C8.56499 11.6393 8.39598 11.2487 8.39582 10.8415L8.39538 9.70169C8.39312 9.54954 8.42254 9.39851 8.48191 9.2574C8.54128 9.1163 8.62941 8.98796 8.74115 8.87988C8.8529 8.77179 8.98602 8.68614 9.13273 8.62792C9.27944 8.56971 9.4368 8.54009 9.59561 8.54081H10.6972L10.1459 7.32188C10.1037 7.2265 10.0332 7.14513 9.94303 7.08789C9.8529 7.03065 9.74719 7.00008 9.63908 7H6.26283C6.19024 7.00135 6.12102 7.02958 6.0697 7.07877C6.01837 7.12796 5.98893 7.19429 5.98755 7.26384L5.99027 14.2713C5.99029 14.3413 5.96131 14.4084 5.90968 14.4579C5.85805 14.5074 5.78802 14.5352 5.71498 14.5352H-1.72047C-1.79351 14.5352 -1.86354 14.563 -1.91517 14.6124C-1.96679 14.6619 -1.99578 14.729 -1.99575 14.799L-1.99471 17.4901C-1.99468 17.5601 -1.96564 17.6272 -1.91398 17.6767C-1.86231 17.7262 -1.79226 17.754 -1.71922 17.754H-1.16845C-1.18302 17.4859 -1.14049 17.2178 -1.04346 16.9659C-0.946434 16.7141 -0.79693 16.4839 -0.604048 16.2892C-0.411167 16.0946 -0.178942 15.9395 0.0784914 15.8336C0.335925 15.7277 0.613184 15.6731 0.893395 15.6731C1.17361 15.6731 1.45091 15.7277 1.70842 15.8336C1.96594 15.9395 2.19828 16.0946 2.39132 16.2892C2.58435 16.4839 2.73403 16.7141 2.83126 16.9659C2.92848 17.2178 2.97121 17.4859 2.95685 17.754H3.23775C3.23754 17.2306 3.45437 16.7286 3.84054 16.3585C4.2267 15.9884 4.75056 15.7805 5.29688 15.7805C5.8432 15.7805 6.36722 15.9884 6.75367 16.3585C7.14012 16.7286 7.35733 17.2306 7.35754 17.754H8.74549C8.74529 17.2306 8.96212 16.7286 9.34828 16.3585C9.73444 15.9884 10.2583 15.7805 10.8046 15.7805C11.3509 15.7805 11.875 15.9884 12.2614 16.3585C12.6479 16.7286 12.8651 17.2306 12.8653 17.754H13.4546C13.6007 17.754 13.7408 17.6984 13.844 17.5994C13.9473 17.5005 14.0052 17.3663 14.0052 17.2263L14.004 14.1341C14.0044 14.0647 13.9905 13.9959 13.963 13.9316C13.9356 13.8673 13.8952 13.8088 13.8441 13.7595Z" fill="#FF6B00"/>
<path d="M5.29873 16.5094C4.95399 16.5094 4.62343 16.6406 4.37975 16.8741C4.13608 17.1077 3.99926 17.4244 3.99938 17.7547V17.7547C3.99951 18.085 4.13658 18.4017 4.38044 18.6353C4.62429 18.8688 4.95496 19 5.29969 19C5.64443 19 5.975 18.8688 6.21867 18.6353C6.46234 18.4017 6.59917 18.085 6.59904 17.7547C6.59898 17.5912 6.56529 17.4292 6.49991 17.2781C6.43453 17.1271 6.33873 16.9898 6.21799 16.8741C6.09724 16.7585 5.95391 16.6668 5.79619 16.6042C5.63846 16.5416 5.46942 16.5094 5.29873 16.5094V16.5094ZM5.99319 17.7547C5.99325 17.924 5.9231 18.0864 5.79817 18.2062C5.67323 18.3259 5.50375 18.3932 5.327 18.3932C5.15025 18.3932 4.98071 18.3259 4.85568 18.2062C4.73066 18.0864 4.66038 17.924 4.66031 17.7547C4.66025 17.5854 4.7304 17.423 4.85533 17.3032C4.98027 17.1835 5.14975 17.1162 5.3265 17.1162C5.50325 17.1162 5.67279 17.1835 5.79782 17.3032C5.92284 17.423 5.99312 17.5854 5.99319 17.7547V17.7547Z" fill="#FF6B00"/>
<path d="M10.8051 16.5084C10.4604 16.5084 10.1298 16.6396 9.88616 16.8731C9.64249 17.1067 9.50566 17.4234 9.50579 17.7537V17.7537C9.50592 18.084 9.64299 18.4007 9.88685 18.6343C10.1307 18.8678 10.4614 18.999 10.8061 18.999C11.1508 18.999 11.4814 18.8678 11.7251 18.6343C11.9688 18.4007 12.1056 18.084 12.1054 17.7537V17.7537C12.1053 17.4234 11.9683 17.1067 11.7244 16.8731C11.4805 16.6396 11.1499 16.5084 10.8051 16.5084V16.5084ZM11.4996 17.7537C11.4997 17.923 11.4295 18.0854 11.3046 18.2052C11.1796 18.3249 11.0102 18.3922 10.8334 18.3922C10.6567 18.3922 10.4871 18.3249 10.3621 18.2052C10.2371 18.0854 10.1668 17.923 10.1667 17.7537V17.7537C10.1667 17.5844 10.2368 17.422 10.3617 17.3022C10.4867 17.1825 10.6562 17.1152 10.8329 17.1152C11.0097 17.1152 11.1792 17.1825 11.3042 17.3022C11.4293 17.422 11.4995 17.5844 11.4996 17.7537V17.7537Z" fill="#FF6B00"/>
</g>
<path d="M18.625 8.02266C18.4 8.02266 18.25 8.22039 18.25 8.51699V9.01133H17.6875L17.1625 7.52832C17.125 7.42945 17.0875 7.33059 17.0125 7.28115C16.825 7.03399 16.525 6.98455 16.2625 7.13285L16 7.23172L15.7375 7.08342C15.475 6.93512 15.175 6.98455 14.9875 7.23172C14.9125 7.33059 14.875 7.42945 14.8375 7.52832L14.3125 9.01133H13.75V8.51699C13.75 8.22039 13.6 8.02266 13.375 8.02266C13.15 8.02266 13 8.22039 13 8.51699V9.01133C13 9.5551 13.3375 10 13.75 10H18.25C18.6625 10 19 9.5551 19 9.01133V8.51699C19 8.26982 18.85 8.02266 18.625 8.02266Z" fill="#FF6B00"/>
</svg>
